<svg id="svg" version="1.1" xmlns="http://www.w3.org/2000/svg" xmlns:xlink="http://www.w3.org/1999/xlink" width="400" height="400" viewBox="0, 0, 400,400"><g id="svgg"><path id="path0" d="M186.000 48.860 C 172.981 49.206,167.099 50.310,156.200 54.450 C 131.631 63.785,112.976 85.456,105.798 113.000 C 105.282 114.980,104.566 117.680,104.207 119.000 C 99.752 135.397,100.340 154.144,105.693 166.400 C 107.374 170.247,107.737 171.346,108.732 175.600 C 110.759 184.268,111.252 188.137,111.486 197.200 C 111.620 202.407,111.519 207.006,111.210 209.800 C 110.943 212.220,110.574 215.640,110.391 217.400 C 110.069 220.493,109.657 223.272,108.806 228.100 C 107.851 233.511,107.613 234.715,107.081 236.800 C 106.772 238.010,106.289 240.080,106.007 241.400 C 105.558 243.504,104.175 249.028,103.204 252.600 C 102.663 254.586,100.941 261.076,99.480 266.627 C 98.471 270.463,97.722 272.432,96.664 274.027 C 89.924 284.189,92.530 293.204,105.200 303.565 C 108.267 306.073,110.464 307.959,117.200 313.869 C 122.232 318.284,130.659 325.135,134.000 327.528 C 140.533 332.206,148.250 337.213,154.000 340.504 C 157.900 342.736,167.145 347.202,171.068 348.748 L 173.071 349.537 173.335 333.669 C 173.693 312.119,173.660 220.708,173.294 220.162 C 173.132 219.922,169.040 216.758,164.200 213.133 C 159.360 209.508,150.720 203.033,145.000 198.745 C 139.280 194.456,133.700 190.279,132.600 189.461 C 127.815 185.905,125.980 184.320,125.460 183.295 C 122.049 176.573,122.097 169.611,125.567 167.817 C 129.039 166.022,132.768 166.215,146.000 168.875 C 150.290 169.738,154.970 170.627,156.400 170.850 C 157.830 171.074,159.990 171.412,161.200 171.602 C 162.410 171.791,165.470 172.327,168.000 172.793 C 179.941 174.991,184.388 175.401,196.200 175.393 C 205.365 175.386,211.220 174.977,215.400 174.051 C 218.779 173.302,223.104 172.452,225.600 172.045 C 232.466 170.926,235.674 170.389,238.807 169.833 C 240.681 169.500,245.811 168.687,250.207 168.026 C 254.603 167.364,259.808 166.541,261.773 166.197 C 266.534 165.362,266.400 165.262,266.400 169.630 C 266.400 180.478,261.360 187.473,246.200 197.670 C 240.591 201.443,237.269 203.834,236.800 204.436 C 236.690 204.577,234.350 206.159,231.600 207.952 C 219.357 215.935,215.544 219.465,214.493 223.792 C 213.745 226.875,214.397 349.200,215.163 349.200 C 215.806 349.200,218.041 348.356,223.400 346.090 C 230.677 343.012,245.282 334.618,251.800 329.767 C 253.120 328.784,255.280 327.233,256.600 326.320 C 257.920 325.407,259.090 324.553,259.200 324.423 C 259.310 324.293,261.380 322.598,263.800 320.656 C 271.699 314.317,278.766 307.958,288.236 298.668 L 297.545 289.536 296.144 285.668 C 295.373 283.541,294.466 280.900,294.128 279.800 C 293.790 278.700,293.371 277.440,293.197 277.000 C 292.620 275.539,292.064 273.832,291.178 270.800 C 290.697 269.150,289.960 266.720,289.542 265.400 C 288.199 261.158,288.074 260.709,286.255 253.600 C 284.294 245.939,283.291 241.417,281.995 234.400 C 281.527 231.870,280.986 228.990,280.791 228.000 C 280.596 227.010,280.243 224.220,280.006 221.800 C 279.769 219.380,279.373 216.140,279.126 214.600 C 277.497 204.439,278.835 179.796,281.384 173.000 C 286.973 158.097,287.677 154.985,287.894 144.232 C 288.381 119.996,283.221 101.294,271.293 84.060 C 267.532 78.624,263.738 74.336,259.000 70.162 C 250.877 63.006,241.073 57.233,231.600 54.027 C 230.170 53.543,228.640 52.994,228.200 52.806 C 227.058 52.319,221.701 50.982,216.800 49.961 C 211.616 48.881,200.354 48.479,186.000 48.860 " stroke="none" fill="#fafafa" fill-rule="evenodd"></path><path id="path1" d="M189.791 15.615 C 189.660 15.827,187.409 16.000,184.776 16.000 C 181.859 16.000,180.000 16.156,180.000 16.400 C 180.000 16.635,178.600 16.800,176.600 16.800 C 174.600 16.800,173.200 16.965,173.200 17.200 C 173.200 17.420,172.246 17.600,171.080 17.600 C 169.914 17.600,168.789 17.763,168.580 17.963 C 168.371 18.163,167.300 18.426,166.200 18.548 C 162.252 18.985,160.594 19.288,160.220 19.641 C 160.011 19.838,159.156 20.000,158.320 20.000 C 157.484 20.000,156.800 20.180,156.800 20.400 C 156.800 20.620,156.080 20.800,155.200 20.800 C 154.320 20.800,153.600 20.980,153.600 21.200 C 153.600 21.420,152.880 21.600,152.000 21.600 C 151.120 21.600,150.400 21.780,150.400 22.000 C 150.400 22.220,149.680 22.400,148.800 22.400 C 147.920 22.400,147.200 22.580,147.200 22.800 C 147.200 23.020,146.786 23.200,146.280 23.200 C 145.774 23.200,145.186 23.374,144.973 23.587 C 144.761 23.799,144.017 24.016,143.321 24.069 C 142.625 24.123,142.144 24.309,142.251 24.483 C 142.359 24.657,141.954 24.800,141.352 24.800 C 140.304 24.800,137.619 25.575,137.200 25.998 C 137.090 26.109,136.550 26.250,136.000 26.312 C 135.450 26.373,134.940 26.599,134.866 26.814 C 134.792 27.029,134.572 27.106,134.377 26.986 C 134.182 26.865,133.598 27.045,133.079 27.385 C 132.561 27.725,132.017 27.883,131.871 27.737 C 131.724 27.591,131.244 27.798,130.802 28.198 C 130.361 28.597,130.000 28.802,130.000 28.653 C 130.000 28.504,129.550 28.676,129.000 29.037 C 128.450 29.397,127.997 29.536,127.994 29.346 C 127.991 29.156,127.842 29.229,127.664 29.509 C 127.487 29.790,126.904 30.102,126.371 30.205 C 125.837 30.307,125.187 30.681,124.927 31.035 C 124.666 31.390,124.260 31.561,124.024 31.415 C 123.788 31.269,123.486 31.431,123.354 31.775 C 123.222 32.119,122.774 32.400,122.357 32.400 C 121.941 32.400,121.600 32.580,121.600 32.800 C 121.600 33.020,121.240 33.200,120.800 33.200 C 120.360 33.200,120.000 33.380,120.000 33.600 C 120.000 33.820,119.865 33.979,119.700 33.953 C 118.718 33.798,117.985 34.053,118.238 34.462 C 118.395 34.716,118.353 34.818,118.145 34.690 C 117.662 34.391,113.107 36.574,113.466 36.932 C 113.613 37.079,113.243 37.200,112.643 37.200 C 112.043 37.200,111.639 37.340,111.745 37.510 C 111.850 37.681,110.961 38.266,109.770 38.810 C 108.578 39.355,107.602 39.935,107.601 40.100 C 107.601 40.265,107.240 40.400,106.800 40.400 C 106.360 40.400,106.000 40.580,106.000 40.800 C 106.000 41.020,105.680 41.200,105.288 41.200 C 104.897 41.200,104.324 41.550,104.015 41.979 C 103.707 42.407,103.322 42.675,103.159 42.575 C 102.997 42.475,102.601 42.656,102.280 42.977 C 101.958 43.299,101.584 43.450,101.448 43.314 C 101.311 43.178,101.200 43.287,101.200 43.557 C 101.200 43.827,101.040 43.949,100.845 43.828 C 100.650 43.707,100.268 43.877,99.996 44.204 C 99.724 44.532,99.260 44.800,98.965 44.800 C 98.670 44.800,98.235 45.160,98.000 45.600 C 97.765 46.040,97.283 46.400,96.929 46.400 C 96.576 46.400,95.771 46.940,95.140 47.600 C 94.509 48.260,93.860 48.800,93.697 48.801 C 93.533 48.801,92.770 49.341,92.000 50.000 C 91.230 50.659,90.460 51.199,90.289 51.199 C 90.118 51.200,89.331 51.785,88.539 52.500 C 87.747 53.215,86.969 53.764,86.809 53.720 C 86.649 53.676,85.917 54.261,85.181 55.020 C 84.445 55.779,83.640 56.400,83.391 56.400 C 83.143 56.400,82.517 56.850,82.000 57.400 C 81.483 57.950,80.861 58.400,80.618 58.400 C 80.374 58.400,79.106 59.480,77.800 60.800 C 76.494 62.120,75.235 63.200,75.003 63.200 C 74.771 63.200,73.150 64.640,71.400 66.400 C 69.650 68.160,68.031 69.600,67.801 69.600 C 67.267 69.600,60.800 76.082,60.800 76.617 C 60.800 76.837,59.270 78.540,57.400 80.400 C 55.530 82.260,54.000 83.973,54.000 84.206 C 54.000 84.439,53.100 85.517,52.000 86.600 C 50.900 87.683,50.000 88.765,50.000 89.004 C 50.000 89.242,49.280 90.141,48.400 91.000 C 47.520 91.859,46.800 92.762,46.800 93.006 C 46.800 93.251,46.260 93.968,45.600 94.600 C 44.940 95.232,44.400 95.958,44.400 96.213 C 44.400 96.468,44.040 97.002,43.600 97.400 C 43.160 97.798,42.800 98.338,42.800 98.600 C 42.800 98.862,42.440 99.402,42.000 99.800 C 41.560 100.198,41.200 100.738,41.200 101.000 C 41.200 101.262,40.826 101.814,40.369 102.228 C 39.912 102.642,39.201 103.720,38.789 104.625 C 38.377 105.529,37.761 106.501,37.420 106.784 C 37.079 107.066,36.800 107.524,36.800 107.800 C 36.800 108.076,36.527 108.529,36.193 108.806 C 35.859 109.083,35.283 109.960,34.913 110.755 C 34.543 111.550,33.917 112.491,33.520 112.847 C 33.124 113.203,32.800 113.788,32.800 114.147 C 32.800 114.506,32.620 114.800,32.400 114.800 C 32.180 114.800,32.000 115.160,32.000 115.600 C 32.000 116.040,31.820 116.400,31.600 116.400 C 31.380 116.400,31.200 116.760,31.200 117.200 C 31.200 117.640,31.020 118.000,30.800 118.000 C 30.580 118.000,30.400 118.360,30.400 118.800 C 30.400 119.240,30.220 119.600,30.000 119.600 C 29.780 119.600,29.600 119.945,29.600 120.367 C 29.600 120.788,29.459 121.193,29.288 121.267 C 28.813 121.469,23.600 132.137,23.600 132.905 C 23.600 133.274,23.240 134.217,22.800 135.000 C 22.360 135.783,22.000 136.683,22.000 137.000 C 22.000 137.317,21.640 138.217,21.200 139.000 C 20.760 139.783,20.400 140.683,20.400 141.000 C 20.400 141.317,20.040 142.217,19.600 143.000 C 19.160 143.783,18.800 144.779,18.800 145.212 C 18.800 145.645,18.620 146.000,18.400 146.000 C 18.180 146.000,18.000 146.540,18.000 147.200 C 18.000 147.860,17.820 148.400,17.600 148.400 C 17.380 148.400,17.200 148.940,17.200 149.600 C 17.200 150.260,17.020 150.800,16.800 150.800 C 16.580 150.800,16.400 151.419,16.400 152.176 C 16.400 152.933,16.220 153.664,16.000 153.800 C 15.780 153.936,15.600 154.476,15.600 155.000 C 15.600 155.524,15.420 156.064,15.200 156.200 C 14.980 156.336,14.800 156.876,14.800 157.400 C 14.800 157.924,14.620 158.464,14.400 158.600 C 14.180 158.736,14.000 159.456,14.000 160.200 C 14.000 160.944,13.820 161.664,13.600 161.800 C 13.380 161.936,13.200 162.656,13.200 163.400 C 13.200 164.144,13.020 164.864,12.800 165.000 C 12.580 165.136,12.400 166.047,12.400 167.024 C 12.400 168.001,12.220 168.800,12.000 168.800 C 11.780 168.800,11.600 169.599,11.600 170.576 C 11.600 171.553,11.420 172.464,11.200 172.600 C 10.980 172.736,10.800 173.636,10.800 174.600 C 10.800 175.564,10.620 176.464,10.400 176.600 C 10.180 176.736,10.000 177.996,10.000 179.400 C 10.000 180.804,9.820 182.064,9.600 182.200 C 9.380 182.336,9.200 183.776,9.200 185.400 C 9.200 187.024,9.020 188.464,8.800 188.600 C 8.573 188.740,8.400 190.730,8.400 193.200 C 8.400 195.670,8.227 197.660,8.000 197.800 C 7.456 198.136,7.456 219.864,8.000 220.200 C 8.227 220.340,8.400 222.330,8.400 224.800 C 8.400 227.270,8.573 229.260,8.800 229.400 C 9.020 229.536,9.200 230.976,9.200 232.600 C 9.200 234.224,9.380 235.664,9.600 235.800 C 9.820 235.936,10.000 237.196,10.000 238.600 C 10.000 240.004,10.180 241.264,10.400 241.400 C 10.620 241.536,10.800 242.627,10.800 243.824 C 10.800 245.021,10.980 246.000,11.200 246.000 C 11.420 246.000,11.600 246.720,11.600 247.600 C 11.600 248.480,11.780 249.200,12.000 249.200 C 12.220 249.200,12.400 249.999,12.400 250.976 C 12.400 251.953,12.580 252.864,12.800 253.000 C 13.020 253.136,13.200 253.856,13.200 254.600 C 13.200 255.344,13.380 256.064,13.600 256.200 C 13.820 256.336,14.000 257.056,14.000 257.800 C 14.000 258.544,14.180 259.264,14.400 259.400 C 14.620 259.536,14.800 260.076,14.800 260.600 C 14.800 261.124,14.980 261.664,15.200 261.800 C 15.420 261.936,15.600 262.667,15.600 263.424 C 15.600 264.181,15.780 264.800,16.000 264.800 C 16.220 264.800,16.400 265.340,16.400 266.000 C 16.400 266.660,16.580 267.200,16.800 267.200 C 17.020 267.200,17.200 267.740,17.200 268.400 C 17.200 269.060,17.380 269.600,17.600 269.600 C 17.820 269.600,18.000 270.140,18.000 270.800 C 18.000 271.460,18.180 272.000,18.400 272.000 C 18.620 272.000,18.800 272.439,18.800 272.976 C 18.800 273.513,18.980 274.064,19.200 274.200 C 19.420 274.336,19.600 274.791,19.600 275.211 C 19.600 275.632,19.960 276.617,20.400 277.400 C 20.840 278.183,21.200 279.083,21.200 279.400 C 21.200 279.717,21.560 280.617,22.000 281.400 C 22.440 282.183,22.800 283.061,22.800 283.351 C 22.800 283.876,23.376 285.234,24.830 288.138 C 25.253 288.984,25.600 289.912,25.600 290.200 C 25.600 290.838,27.281 294.147,27.700 294.333 C 27.865 294.407,28.000 294.812,28.000 295.233 C 28.000 295.655,28.180 296.000,28.400 296.000 C 28.620 296.000,28.800 296.360,28.800 296.800 C 28.800 297.240,28.980 297.600,29.200 297.600 C 29.420 297.600,29.600 297.920,29.600 298.312 C 29.600 298.703,29.960 299.283,30.400 299.600 C 30.840 299.917,31.200 300.497,31.200 300.888 C 31.200 301.280,31.380 301.600,31.600 301.600 C 31.820 301.600,32.000 301.960,32.000 302.400 C 32.000 302.840,32.136 303.200,32.302 303.200 C 32.469 303.200,32.854 303.785,33.159 304.500 C 33.464 305.215,34.019 306.160,34.391 306.600 C 34.763 307.040,35.365 308.050,35.727 308.845 C 36.089 309.640,36.659 310.517,36.993 310.794 C 37.327 311.071,37.600 311.524,37.600 311.800 C 37.600 312.076,37.889 312.542,38.242 312.835 C 38.595 313.127,39.052 313.735,39.259 314.184 C 39.887 315.548,40.636 316.756,41.336 317.529 C 41.701 317.933,42.000 318.446,42.000 318.670 C 42.000 318.893,42.360 319.402,42.800 319.800 C 43.240 320.198,43.600 320.732,43.600 320.987 C 43.600 321.242,44.140 321.968,44.800 322.600 C 45.460 323.232,46.000 323.952,46.000 324.200 C 46.000 324.448,46.540 325.168,47.200 325.800 C 47.860 326.432,48.400 327.149,48.400 327.394 C 48.400 327.638,49.120 328.541,50.000 329.400 C 50.880 330.259,51.600 331.156,51.600 331.394 C 51.600 331.631,52.680 332.894,54.000 334.200 C 55.320 335.506,56.400 336.762,56.400 336.991 C 56.400 337.530,71.277 352.400,71.816 352.400 C 72.041 352.400,73.294 353.480,74.600 354.800 C 75.906 356.120,77.168 357.200,77.404 357.200 C 77.640 357.200,78.628 358.010,79.600 359.000 C 80.572 359.990,81.565 360.800,81.808 360.800 C 82.051 360.800,82.768 361.340,83.400 362.000 C 84.032 362.660,84.758 363.200,85.013 363.200 C 85.268 363.200,85.802 363.560,86.200 364.000 C 86.598 364.440,87.138 364.800,87.400 364.800 C 87.662 364.800,88.202 365.160,88.600 365.600 C 88.998 366.040,89.532 366.400,89.787 366.400 C 90.042 366.400,90.768 366.940,91.400 367.600 C 92.032 368.260,92.758 368.800,93.013 368.800 C 93.268 368.800,93.802 369.160,94.200 369.600 C 94.598 370.040,95.144 370.400,95.413 370.400 C 95.682 370.400,96.129 370.673,96.406 371.007 C 96.683 371.341,97.560 371.912,98.355 372.274 C 99.150 372.637,100.112 373.199,100.493 373.523 C 101.185 374.111,102.660 374.935,106.800 377.048 C 108.010 377.665,109.060 378.312,109.133 378.485 C 109.207 378.658,109.612 378.800,110.033 378.800 C 110.455 378.800,110.800 378.980,110.800 379.200 C 110.800 379.420,111.120 379.600,111.512 379.600 C 111.903 379.600,112.483 379.960,112.800 380.400 C 113.117 380.840,113.697 381.200,114.088 381.200 C 114.480 381.200,114.800 381.380,114.800 381.600 C 114.800 381.820,115.160 382.000,115.600 382.000 C 116.040 382.000,116.400 382.180,116.400 382.400 C 116.400 382.620,116.742 382.800,117.159 382.800 C 117.577 382.800,118.945 383.340,120.200 384.000 C 121.455 384.660,122.715 385.200,123.000 385.200 C 123.285 385.200,124.545 385.740,125.800 386.400 C 127.055 387.060,128.327 387.600,128.628 387.600 C 128.929 387.600,129.817 387.960,130.600 388.400 C 131.383 388.840,132.283 389.200,132.600 389.200 C 132.917 389.200,133.817 389.560,134.600 390.000 C 135.383 390.440,136.368 390.800,136.789 390.800 C 137.209 390.800,137.664 390.980,137.800 391.200 C 137.936 391.420,138.476 391.600,139.000 391.600 C 139.524 391.600,140.051 391.759,140.171 391.953 C 140.291 392.148,141.379 392.430,142.588 392.581 C 143.798 392.732,144.891 393.023,145.017 393.228 C 145.144 393.433,145.676 393.600,146.200 393.600 C 146.724 393.600,147.264 393.780,147.400 394.000 C 147.536 394.220,148.256 394.400,149.000 394.400 C 149.744 394.400,150.464 394.580,150.600 394.800 C 150.736 395.020,151.456 395.200,152.200 395.200 C 152.944 395.200,153.664 395.380,153.800 395.600 C 153.936 395.820,154.656 396.000,155.400 396.000 C 156.144 396.000,156.864 396.180,157.000 396.400 C 157.136 396.620,157.856 396.800,158.600 396.800 C 159.344 396.800,160.064 396.980,160.200 397.200 C 160.336 397.420,161.427 397.600,162.624 397.600 C 163.821 397.600,164.800 397.780,164.800 398.000 C 164.800 398.220,165.599 398.400,166.576 398.400 C 167.553 398.400,168.464 398.580,168.600 398.800 C 168.736 399.020,170.187 399.200,171.824 399.200 C 173.541 399.200,174.800 399.369,174.800 399.600 C 174.800 399.862,183.467 400.000,200.000 400.000 C 216.533 400.000,225.200 399.862,225.200 399.600 C 225.200 399.369,226.459 399.200,228.176 399.200 C 229.813 399.200,231.264 399.020,231.400 398.800 C 231.536 398.580,232.447 398.400,233.424 398.400 C 234.401 398.400,235.200 398.220,235.200 398.000 C 235.200 397.780,236.179 397.600,237.376 397.600 C 238.573 397.600,239.664 397.420,239.800 397.200 C 239.936 396.980,240.656 396.800,241.400 396.800 C 242.144 396.800,242.864 396.620,243.000 396.400 C 243.136 396.180,243.856 396.000,244.600 396.000 C 245.344 396.000,246.064 395.820,246.200 395.600 C 246.336 395.380,247.056 395.200,247.800 395.200 C 248.544 395.200,249.264 395.020,249.400 394.800 C 249.536 394.580,250.256 394.400,251.000 394.400 C 251.744 394.400,252.464 394.220,252.600 394.000 C 252.736 393.780,253.276 393.600,253.800 393.600 C 254.324 393.600,254.856 393.433,254.983 393.228 C 255.109 393.023,256.202 392.732,257.412 392.581 C 258.621 392.430,259.709 392.148,259.829 391.953 C 259.949 391.759,260.476 391.600,261.000 391.600 C 261.524 391.600,262.064 391.420,262.200 391.200 C 262.336 390.980,262.791 390.800,263.211 390.800 C 263.632 390.800,264.617 390.440,265.400 390.000 C 266.183 389.560,267.083 389.200,267.400 389.200 C 267.717 389.200,268.617 388.840,269.400 388.400 C 270.183 387.960,271.071 387.600,271.372 387.600 C 271.673 387.600,272.945 387.060,274.200 386.400 C 275.455 385.740,276.715 385.200,277.000 385.200 C 277.285 385.200,278.545 384.660,279.800 384.000 C 281.055 383.340,282.423 382.800,282.841 382.800 C 283.258 382.800,283.600 382.620,283.600 382.400 C 283.600 382.180,283.960 382.000,284.400 382.000 C 284.840 382.000,285.200 381.820,285.200 381.600 C 285.200 381.380,285.520 381.200,285.912 381.200 C 286.303 381.200,286.883 380.840,287.200 380.400 C 287.517 379.960,288.097 379.600,288.488 379.600 C 288.880 379.600,289.200 379.420,289.200 379.200 C 289.200 378.980,289.545 378.800,289.967 378.800 C 290.388 378.800,290.793 378.658,290.867 378.485 C 290.940 378.312,291.990 377.665,293.200 377.047 C 298.717 374.229,300.476 373.255,301.144 372.650 C 301.540 372.293,302.046 372.000,302.270 372.000 C 302.493 372.000,303.002 371.640,303.400 371.200 C 303.798 370.760,304.338 370.400,304.600 370.400 C 304.862 370.400,305.402 370.040,305.800 369.600 C 306.198 369.160,306.738 368.800,307.000 368.800 C 307.262 368.800,307.802 368.440,308.200 368.000 C 308.598 367.560,309.132 367.200,309.387 367.200 C 309.642 367.200,310.368 366.660,311.000 366.000 C 311.632 365.340,312.358 364.800,312.613 364.800 C 312.868 364.800,313.402 364.440,313.800 364.000 C 314.198 363.560,314.732 363.200,314.987 363.200 C 315.242 363.200,315.968 362.660,316.600 362.000 C 317.232 361.340,317.949 360.800,318.192 360.800 C 318.435 360.800,319.428 359.990,320.400 359.000 C 321.372 358.010,322.360 357.200,322.596 357.200 C 322.832 357.200,324.094 356.120,325.400 354.800 C 326.706 353.480,327.962 352.400,328.191 352.400 C 328.730 352.400,343.600 337.523,343.600 336.984 C 343.600 336.759,344.680 335.506,346.000 334.200 C 347.320 332.894,348.400 331.631,348.400 331.394 C 348.400 331.156,349.120 330.259,350.000 329.400 C 350.880 328.541,351.600 327.638,351.600 327.394 C 351.600 327.149,352.140 326.432,352.800 325.800 C 353.460 325.168,354.000 324.448,354.000 324.200 C 354.000 323.952,354.540 323.232,355.200 322.600 C 355.860 321.968,356.400 321.242,356.400 320.987 C 356.400 320.732,356.760 320.198,357.200 319.800 C 357.640 319.402,358.000 318.856,358.000 318.587 C 358.000 318.318,358.289 317.858,358.642 317.565 C 358.995 317.273,359.452 316.665,359.659 316.216 C 360.287 314.852,361.036 313.644,361.736 312.871 C 362.101 312.467,362.400 311.948,362.400 311.717 C 362.400 311.487,362.673 311.071,363.007 310.794 C 363.341 310.517,363.911 309.640,364.273 308.845 C 364.635 308.050,365.237 307.040,365.609 306.600 C 365.981 306.160,366.536 305.215,366.841 304.500 C 367.146 303.785,367.531 303.200,367.698 303.200 C 367.864 303.200,368.000 302.880,368.000 302.488 C 368.000 302.097,368.360 301.517,368.800 301.200 C 369.240 300.883,369.600 300.303,369.600 299.912 C 369.600 299.520,369.780 299.200,370.000 299.200 C 370.220 299.200,370.400 298.840,370.400 298.400 C 370.400 297.960,370.580 297.600,370.800 297.600 C 371.020 297.600,371.200 297.240,371.200 296.800 C 371.200 296.360,371.380 296.000,371.600 296.000 C 371.820 296.000,372.000 295.655,372.000 295.233 C 372.000 294.812,372.135 294.407,372.300 294.333 C 372.701 294.155,375.200 289.218,375.200 288.605 C 375.200 288.151,375.990 286.257,376.826 284.705 C 377.032 284.323,377.200 283.744,377.200 283.418 C 377.200 283.091,377.560 282.183,378.000 281.400 C 378.440 280.617,378.800 279.717,378.800 279.400 C 378.800 279.083,379.160 278.183,379.600 277.400 C 380.040 276.617,380.400 275.632,380.400 275.211 C 380.400 274.791,380.580 274.336,380.800 274.200 C 381.020 274.064,381.200 273.513,381.200 272.976 C 381.200 272.439,381.380 272.000,381.600 272.000 C 381.820 272.000,382.000 271.460,382.000 270.800 C 382.000 270.140,382.180 269.600,382.400 269.600 C 382.620 269.600,382.800 269.060,382.800 268.400 C 382.800 267.740,382.980 267.200,383.200 267.200 C 383.420 267.200,383.600 266.660,383.600 266.000 C 383.600 265.340,383.780 264.800,384.000 264.800 C 384.220 264.800,384.400 264.361,384.400 263.824 C 384.400 263.287,384.580 262.736,384.800 262.600 C 385.020 262.464,385.200 261.744,385.200 261.000 C 385.200 260.256,385.380 259.536,385.600 259.400 C 385.820 259.264,386.000 258.544,386.000 257.800 C 386.000 257.056,386.180 256.336,386.400 256.200 C 386.620 256.064,386.800 255.344,386.800 254.600 C 386.800 253.856,386.980 253.136,387.200 253.000 C 387.420 252.864,387.600 252.144,387.600 251.400 C 387.600 250.656,387.780 249.936,388.000 249.800 C 388.220 249.664,388.400 248.753,388.400 247.776 C 388.400 246.799,388.580 246.000,388.800 246.000 C 389.020 246.000,389.200 245.021,389.200 243.824 C 389.200 242.627,389.380 241.536,389.600 241.400 C 389.820 241.264,390.000 240.184,390.000 239.000 C 390.000 237.816,390.180 236.736,390.400 236.600 C 390.620 236.464,390.800 235.024,390.800 233.400 C 390.800 231.776,390.980 230.336,391.200 230.200 C 391.427 230.060,391.600 228.070,391.600 225.600 C 391.600 223.130,391.773 221.140,392.000 221.000 C 392.252 220.844,392.400 216.404,392.400 209.000 C 392.400 201.596,392.252 197.156,392.000 197.000 C 391.773 196.860,391.600 194.870,391.600 192.400 C 391.600 189.930,391.427 187.940,391.200 187.800 C 390.980 187.664,390.800 186.224,390.800 184.600 C 390.800 182.976,390.620 181.536,390.400 181.400 C 390.180 181.264,390.000 180.184,390.000 179.000 C 390.000 177.816,389.820 176.736,389.600 176.600 C 389.380 176.464,389.200 175.564,389.200 174.600 C 389.200 173.636,389.020 172.736,388.800 172.600 C 388.580 172.464,388.400 171.553,388.400 170.576 C 388.400 169.599,388.220 168.800,388.000 168.800 C 387.780 168.800,387.600 168.001,387.600 167.024 C 387.600 166.047,387.420 165.136,387.200 165.000 C 386.980 164.864,386.800 164.144,386.800 163.400 C 386.800 162.656,386.620 161.936,386.400 161.800 C 386.180 161.664,386.000 160.944,386.000 160.200 C 386.000 159.456,385.820 158.736,385.600 158.600 C 385.380 158.464,385.200 157.924,385.200 157.400 C 385.200 156.876,385.020 156.336,384.800 156.200 C 384.580 156.064,384.400 155.344,384.400 154.600 C 384.400 153.856,384.220 153.136,384.000 153.000 C 383.780 152.864,383.600 152.313,383.600 151.776 C 383.600 151.239,383.420 150.800,383.200 150.800 C 382.980 150.800,382.800 150.260,382.800 149.600 C 382.800 148.940,382.620 148.400,382.400 148.400 C 382.180 148.400,382.000 147.860,382.000 147.200 C 382.000 146.540,381.820 146.000,381.600 146.000 C 381.380 146.000,381.200 145.645,381.200 145.212 C 381.200 144.779,380.840 143.783,380.400 143.000 C 379.960 142.217,379.600 141.232,379.600 140.811 C 379.600 140.391,379.420 139.936,379.200 139.800 C 378.980 139.664,378.800 139.222,378.800 138.817 C 378.800 138.412,378.260 137.055,377.600 135.800 C 376.940 134.545,376.399 133.222,376.399 132.859 C 376.398 132.497,375.768 130.950,374.999 129.423 C 374.229 127.896,373.600 126.428,373.600 126.161 C 373.600 125.429,371.896 122.289,371.100 121.553 C 370.715 121.197,370.400 120.612,370.400 120.253 C 370.400 119.894,370.220 119.600,370.000 119.600 C 369.780 119.600,369.600 119.240,369.600 118.800 C 369.600 118.360,369.420 118.000,369.200 118.000 C 368.980 118.000,368.800 117.640,368.800 117.200 C 368.800 116.760,368.620 116.400,368.400 116.400 C 368.180 116.400,368.000 116.040,368.000 115.600 C 368.000 115.160,367.820 114.800,367.600 114.800 C 367.380 114.800,367.200 114.506,367.200 114.147 C 367.200 113.788,366.876 113.203,366.480 112.847 C 366.083 112.491,365.449 111.533,365.069 110.717 C 364.689 109.901,364.208 109.129,364.000 109.000 C 363.792 108.871,363.316 108.099,362.944 107.283 C 362.571 106.467,361.997 105.484,361.668 105.097 C 361.027 104.343,360.264 103.090,359.660 101.800 C 359.454 101.360,358.816 100.564,358.242 100.030 C 357.669 99.497,357.200 98.850,357.200 98.592 C 357.200 98.335,356.840 97.798,356.400 97.400 C 355.960 97.002,355.600 96.468,355.600 96.213 C 355.600 95.958,355.060 95.232,354.400 94.600 C 353.740 93.968,353.200 93.248,353.200 93.000 C 353.200 92.752,352.660 92.032,352.000 91.400 C 351.340 90.768,350.800 90.052,350.800 89.810 C 350.800 89.568,349.900 88.483,348.800 87.400 C 347.700 86.317,346.800 85.239,346.800 85.005 C 346.800 84.771,345.450 83.239,343.800 81.600 C 342.150 79.961,340.800 78.433,340.800 78.203 C 340.800 77.669,331.920 68.800,331.384 68.800 C 331.163 68.800,329.550 67.360,327.800 65.600 C 326.050 63.840,324.428 62.400,324.194 62.400 C 323.961 62.400,322.883 61.500,321.800 60.400 C 320.717 59.300,319.630 58.400,319.385 58.400 C 319.140 58.400,318.517 57.950,318.000 57.400 C 317.483 56.850,316.857 56.400,316.609 56.400 C 316.360 56.400,315.555 55.779,314.819 55.020 C 314.083 54.261,313.351 53.676,313.191 53.720 C 313.031 53.764,312.253 53.215,311.461 52.500 C 310.669 51.785,309.882 51.200,309.711 51.199 C 309.540 51.199,308.770 50.659,308.000 50.000 C 307.230 49.341,306.364 48.801,306.076 48.801 C 305.788 48.800,305.647 48.647,305.763 48.460 C 305.878 48.273,305.529 47.883,304.986 47.593 C 304.444 47.302,304.000 46.915,304.000 46.732 C 304.000 46.550,303.646 46.400,303.214 46.400 C 302.782 46.400,302.235 46.040,302.000 45.600 C 301.765 45.160,301.330 44.800,301.035 44.800 C 300.740 44.800,300.276 44.532,300.004 44.204 C 299.732 43.877,299.350 43.707,299.155 43.828 C 298.960 43.949,298.800 43.846,298.800 43.600 C 298.800 43.354,298.639 43.252,298.442 43.374 C 298.245 43.496,297.973 43.308,297.839 42.956 C 297.704 42.605,297.353 42.409,297.059 42.522 C 296.765 42.635,296.276 42.384,295.974 41.964 C 295.671 41.544,295.103 41.200,294.712 41.200 C 294.320 41.200,294.000 41.020,294.000 40.800 C 294.000 40.580,293.640 40.400,293.200 40.400 C 292.760 40.400,292.399 40.265,292.399 40.100 C 292.398 39.935,291.422 39.355,290.230 38.810 C 289.039 38.266,288.150 37.681,288.255 37.510 C 288.361 37.340,287.957 37.200,287.357 37.200 C 286.757 37.200,286.387 37.079,286.534 36.932 C 286.893 36.574,282.338 34.391,281.855 34.690 C 281.647 34.818,281.605 34.716,281.762 34.462 C 282.015 34.053,281.282 33.798,280.300 33.953 C 280.135 33.979,280.000 33.820,280.000 33.600 C 280.000 33.380,279.640 33.200,279.200 33.200 C 278.760 33.200,278.400 33.020,278.400 32.800 C 278.400 32.580,278.059 32.400,277.643 32.400 C 277.226 32.400,276.778 32.119,276.646 31.775 C 276.514 31.431,276.212 31.269,275.976 31.415 C 275.740 31.561,275.334 31.390,275.073 31.035 C 274.813 30.681,274.163 30.307,273.629 30.205 C 273.096 30.102,272.513 29.790,272.336 29.509 C 272.158 29.229,272.009 29.156,272.006 29.346 C 272.003 29.536,271.550 29.397,271.000 29.037 C 270.450 28.676,270.000 28.504,270.000 28.653 C 270.000 28.802,269.639 28.597,269.198 28.198 C 268.756 27.798,268.276 27.591,268.129 27.737 C 267.983 27.883,267.439 27.725,266.921 27.385 C 266.402 27.045,265.818 26.865,265.623 26.986 C 265.428 27.106,265.208 27.029,265.134 26.814 C 265.060 26.599,264.550 26.373,264.000 26.312 C 263.450 26.250,262.910 26.109,262.800 25.998 C 262.381 25.575,259.696 24.800,258.648 24.800 C 258.046 24.800,257.641 24.657,257.749 24.483 C 257.856 24.309,257.375 24.123,256.679 24.069 C 255.983 24.016,255.239 23.799,255.027 23.587 C 254.814 23.374,254.226 23.200,253.720 23.200 C 253.214 23.200,252.800 23.020,252.800 22.800 C 252.800 22.580,252.080 22.400,251.200 22.400 C 250.320 22.400,249.600 22.220,249.600 22.000 C 249.600 21.780,248.880 21.600,248.000 21.600 C 247.120 21.600,246.400 21.420,246.400 21.200 C 246.400 20.980,245.680 20.800,244.800 20.800 C 243.920 20.800,243.200 20.620,243.200 20.400 C 243.200 20.180,242.516 20.000,241.680 20.000 C 240.844 20.000,239.989 19.838,239.780 19.641 C 239.406 19.288,237.748 18.985,233.800 18.548 C 232.700 18.426,231.629 18.163,231.420 17.963 C 231.211 17.763,230.086 17.600,228.920 17.600 C 227.754 17.600,226.800 17.420,226.800 17.200 C 226.800 16.965,225.400 16.800,223.400 16.800 C 221.400 16.800,220.000 16.635,220.000 16.400 C 220.000 16.156,218.141 16.000,215.224 16.000 C 212.591 16.000,210.340 15.827,210.209 15.615 C 210.066 15.384,205.965 15.229,200.000 15.229 C 194.035 15.229,189.934 15.384,189.791 15.615 M211.685 48.393 C 217.406 49.135,224.620 50.641,226.831 51.555 C 227.364 51.775,229.150 52.360,230.800 52.854 C 232.450 53.348,234.340 54.044,235.000 54.400 C 235.660 54.757,237.280 55.477,238.600 56.000 C 240.875 56.902,241.702 57.315,245.000 59.200 C 245.770 59.640,247.074 60.382,247.898 60.848 C 251.538 62.909,255.630 65.989,259.973 69.935 C 263.412 73.060,263.931 73.596,267.600 77.800 C 269.510 79.989,275.200 88.070,275.200 88.594 C 275.200 88.715,275.920 90.000,276.800 91.448 C 277.680 92.897,278.400 94.157,278.400 94.250 C 278.400 94.342,279.138 95.988,280.039 97.909 C 283.011 104.236,285.503 112.236,287.172 120.800 C 288.192 126.035,288.379 127.421,288.708 132.200 C 289.818 148.348,289.091 153.641,283.625 169.200 C 279.164 181.899,278.039 195.671,279.966 214.000 C 281.092 224.715,283.006 236.896,284.398 242.200 C 284.802 243.740,285.520 246.890,285.993 249.200 C 286.466 251.510,287.205 254.480,287.635 255.800 C 288.773 259.290,289.071 260.348,289.605 262.800 C 289.869 264.010,290.246 265.313,290.443 265.695 C 290.639 266.077,290.800 266.664,290.800 267.000 C 290.800 267.336,290.976 267.923,291.191 268.305 C 291.757 269.308,293.200 274.006,293.200 274.842 C 293.200 275.233,293.380 275.664,293.600 275.800 C 293.820 275.936,294.000 276.399,294.000 276.829 C 294.000 277.259,294.180 277.923,294.399 278.305 C 294.619 278.687,295.594 281.388,296.567 284.308 L 298.336 289.615 297.268 290.885 C 296.081 292.297,286.043 302.125,282.010 305.825 C 280.586 307.131,278.966 308.657,278.410 309.215 C 276.964 310.668,268.200 318.238,265.230 320.600 C 263.847 321.700,261.950 323.230,261.014 324.000 C 260.078 324.770,258.171 326.210,256.776 327.200 C 255.381 328.190,253.447 329.599,252.477 330.330 C 249.193 332.808,240.027 338.563,235.600 340.926 C 230.562 343.616,223.262 347.200,222.820 347.200 C 222.591 347.200,221.012 347.843,219.312 348.628 C 217.612 349.413,215.723 350.155,215.114 350.277 L 214.008 350.498 213.837 291.149 C 213.742 258.507,213.548 230.333,213.404 228.539 C 213.144 225.307,213.547 223.148,214.877 220.652 C 216.107 218.345,224.585 210.800,225.949 210.800 C 226.197 210.800,226.400 210.620,226.400 210.400 C 226.400 210.180,226.636 210.000,226.925 210.000 C 227.213 210.000,227.836 209.640,228.308 209.200 C 228.780 208.760,229.274 208.400,229.405 208.400 C 229.823 208.400,234.506 205.153,237.200 202.995 C 238.630 201.850,242.320 199.237,245.400 197.188 C 260.021 187.463,264.975 180.984,265.501 170.900 L 265.715 166.800 264.728 166.800 C 263.421 166.800,257.321 167.700,246.800 169.444 C 242.070 170.228,237.030 171.027,235.600 171.220 C 234.170 171.413,232.100 171.743,231.000 171.954 C 228.302 172.470,225.098 173.050,222.200 173.548 C 220.880 173.775,218.720 174.171,217.400 174.428 C 214.590 174.975,210.623 175.550,207.800 175.818 C 198.320 176.718,197.153 176.741,189.400 176.174 C 179.166 175.427,174.352 174.860,167.600 173.607 C 166.390 173.383,164.320 173.004,163.000 172.765 C 161.680 172.527,159.700 172.167,158.600 171.966 C 157.500 171.766,155.430 171.436,154.000 171.234 C 151.343 170.858,150.244 170.642,143.600 169.182 C 125.632 165.234,120.042 168.743,125.260 180.696 C 125.667 181.628,126.000 182.538,126.000 182.717 C 126.000 183.240,128.306 185.236,132.597 188.427 C 134.795 190.062,136.865 191.615,137.197 191.878 C 137.528 192.140,138.970 193.215,140.400 194.265 C 141.830 195.316,143.090 196.286,143.200 196.422 C 143.310 196.557,143.691 196.833,144.046 197.034 C 144.401 197.235,145.301 197.879,146.046 198.465 C 146.791 199.050,149.339 200.982,151.710 202.758 C 154.080 204.534,156.240 206.171,156.510 206.397 C 156.779 206.624,160.915 209.710,165.700 213.256 L 174.400 219.704 174.400 284.026 C 174.400 351.751,174.429 350.695,172.583 350.231 C 170.924 349.815,156.720 343.072,153.807 341.319 C 153.150 340.923,150.583 339.388,148.101 337.908 C 143.613 335.229,137.781 331.338,134.119 328.577 C 133.064 327.781,131.673 326.741,131.029 326.265 C 129.634 325.235,127.481 323.504,127.200 323.187 C 127.090 323.063,126.370 322.523,125.600 321.988 C 124.830 321.453,123.750 320.629,123.200 320.158 C 116.737 314.622,111.609 310.115,110.782 309.244 C 110.223 308.654,109.143 307.732,108.382 307.193 C 107.622 306.655,106.640 305.900,106.200 305.515 C 101.177 301.121,99.759 299.801,98.023 297.901 C 96.910 296.684,96.000 295.566,96.000 295.416 C 96.000 295.266,95.499 294.392,94.888 293.472 C 92.150 289.356,91.416 285.470,92.555 281.120 C 93.229 278.544,94.477 275.600,94.894 275.600 C 95.062 275.600,95.200 275.432,95.200 275.227 C 95.200 275.021,95.724 273.986,96.364 272.927 C 97.144 271.636,98.217 268.359,99.615 263.000 C 100.762 258.600,102.226 253.020,102.869 250.600 C 103.511 248.180,104.218 245.390,104.438 244.400 C 104.659 243.410,105.010 241.925,105.220 241.100 C 106.478 236.136,106.526 235.908,107.618 229.600 C 107.866 228.170,108.241 226.100,108.452 225.000 C 111.079 211.323,111.418 191.793,109.208 181.500 C 108.984 180.455,108.636 178.835,108.435 177.900 C 107.596 173.990,106.457 170.074,105.615 168.200 C 103.534 163.573,103.691 164.013,102.059 158.200 C 101.088 154.741,100.853 153.129,100.397 146.800 C 99.869 139.487,100.401 133.852,102.810 121.200 C 103.196 119.175,104.540 114.046,105.355 111.490 C 105.652 110.561,106.293 108.450,106.780 106.800 C 107.267 105.150,108.084 102.900,108.596 101.800 C 109.108 100.700,110.097 98.412,110.794 96.715 C 111.492 95.018,112.974 92.138,114.088 90.315 C 115.202 88.492,116.635 86.125,117.273 85.056 C 121.075 78.675,133.126 65.959,137.600 63.606 C 138.150 63.317,138.690 62.960,138.800 62.814 C 139.192 62.291,142.752 60.000,143.172 60.000 C 143.407 60.000,143.601 59.865,143.603 59.700 C 143.605 59.535,144.010 59.199,144.503 58.954 C 144.996 58.709,146.480 57.963,147.800 57.295 C 158.057 52.110,167.903 49.228,178.200 48.400 C 190.395 47.418,204.146 47.415,211.685 48.393 " stroke="none" fill="#4b4b4b" fill-rule="evenodd"></path><path id="path2" d="M183.500 48.698 C 185.755 48.770,189.445 48.770,191.700 48.698 C 193.955 48.627,192.110 48.569,187.600 48.569 C 183.090 48.569,181.245 48.627,183.500 48.698 M196.800 48.645 C 198.840 48.900,212.556 49.001,211.400 48.753 C 210.740 48.611,206.960 48.500,203.000 48.507 C 199.040 48.514,196.250 48.576,196.800 48.645 M177.105 49.083 C 177.602 49.179,178.322 49.175,178.705 49.075 C 179.087 48.975,178.680 48.896,177.800 48.901 C 176.920 48.905,176.607 48.987,177.105 49.083 M171.800 49.600 C 170.137 50.023,171.774 50.042,173.800 49.623 C 175.145 49.345,175.209 49.292,174.200 49.293 C 173.540 49.294,172.460 49.432,171.800 49.600 M213.633 49.349 C 213.725 49.431,214.700 49.601,215.800 49.728 C 217.149 49.884,217.474 49.849,216.800 49.620 C 215.801 49.280,213.318 49.068,213.633 49.349 M168.000 50.400 C 167.208 50.654,167.167 50.720,167.800 50.720 C 168.240 50.720,169.050 50.576,169.600 50.400 C 170.392 50.146,170.433 50.080,169.800 50.080 C 169.360 50.080,168.550 50.224,168.000 50.400 M218.800 50.400 C 219.350 50.576,220.160 50.720,220.600 50.720 C 221.233 50.720,221.192 50.654,220.400 50.400 C 219.850 50.224,219.040 50.080,218.600 50.080 C 217.967 50.080,218.008 50.146,218.800 50.400 M163.675 51.473 C 161.111 52.380,161.859 52.484,164.616 51.604 C 165.927 51.186,166.640 50.848,166.200 50.853 C 165.760 50.859,164.624 51.138,163.675 51.473 M224.000 51.614 C 225.430 52.031,226.780 52.360,227.000 52.345 C 227.698 52.298,223.036 50.849,222.200 50.853 C 221.760 50.855,222.570 51.198,224.000 51.614 M154.400 54.698 C 153.410 55.048,152.795 55.398,153.034 55.478 C 153.273 55.558,154.263 55.270,155.234 54.840 C 157.359 53.897,156.894 53.818,154.400 54.698 M149.065 57.047 C 148.440 57.386,148.015 57.748,148.120 57.853 C 148.224 57.957,148.915 57.674,149.655 57.223 C 151.213 56.273,150.748 56.135,149.065 57.047 M240.000 57.392 C 240.000 57.545,242.392 58.800,242.685 58.800 C 242.774 58.800,242.747 58.638,242.624 58.439 C 242.398 58.074,240.000 57.116,240.000 57.392 M243.200 58.979 C 243.200 59.089,243.740 59.459,244.400 59.800 C 245.060 60.141,245.600 60.331,245.600 60.221 C 245.600 60.111,245.060 59.741,244.400 59.400 C 243.740 59.059,243.200 58.869,243.200 58.979 M140.900 61.817 C 139.745 62.574,138.800 63.277,138.800 63.380 C 138.800 63.633,142.791 61.139,143.045 60.727 C 143.348 60.237,143.181 60.322,140.900 61.817 M246.200 60.710 C 246.420 60.939,247.590 61.698,248.800 62.398 C 250.010 63.097,250.730 63.412,250.400 63.098 C 249.687 62.419,245.620 60.106,246.200 60.710 M134.600 66.572 C 132.620 68.194,129.470 71.110,127.600 73.053 L 124.200 76.585 128.400 72.565 C 130.710 70.353,133.905 67.502,135.500 66.227 C 138.015 64.218,138.716 63.562,138.300 63.612 C 138.245 63.618,136.580 64.951,134.600 66.572 M251.200 63.782 C 251.200 63.888,252.235 64.728,253.500 65.649 C 254.765 66.570,257.240 68.588,259.000 70.133 C 262.011 72.777,262.073 72.811,260.053 70.712 C 258.143 68.726,251.200 63.292,251.200 63.782 M262.400 72.967 C 262.400 73.388,263.605 74.528,263.821 74.312 C 263.922 74.211,263.644 73.802,263.202 73.402 C 262.761 73.003,262.400 72.807,262.400 72.967 M265.581 76.600 C 266.498 77.700,268.159 79.815,269.273 81.300 C 270.387 82.785,271.378 84.000,271.475 84.000 C 271.862 84.000,268.254 79.255,266.151 77.000 C 264.389 75.110,264.268 75.025,265.581 76.600 M123.114 77.900 C 121.786 79.312,117.702 85.036,116.908 86.599 C 116.050 88.289,116.385 87.874,119.005 84.000 C 120.270 82.130,122.018 79.745,122.890 78.700 C 124.625 76.620,124.755 76.157,123.114 77.900 M272.585 85.900 C 273.202 86.835,273.783 87.600,273.876 87.600 C 274.164 87.600,272.633 85.166,272.032 84.669 C 271.720 84.411,271.968 84.965,272.585 85.900 M115.753 88.500 C 114.376 90.836,114.286 91.035,114.987 90.200 C 115.800 89.232,116.500 88.000,116.238 88.000 C 116.133 88.000,115.915 88.225,115.753 88.500 M274.600 89.200 C 274.941 89.860,275.311 90.400,275.421 90.400 C 275.531 90.400,275.341 89.860,275.000 89.200 C 274.659 88.540,274.289 88.000,274.179 88.000 C 274.069 88.000,274.259 88.540,274.600 89.200 M275.615 91.000 C 275.617 91.220,275.986 91.850,276.436 92.400 C 276.979 93.064,277.115 93.131,276.840 92.600 C 276.166 91.295,275.612 90.572,275.615 91.000 M112.793 93.614 C 111.821 95.519,111.043 97.490,111.406 97.127 C 111.787 96.746,113.995 92.000,113.791 92.000 C 113.695 92.000,113.246 92.726,112.793 93.614 M110.272 99.019 C 109.332 100.989,109.464 101.324,110.447 99.462 C 110.893 98.616,111.187 97.854,111.101 97.767 C 111.014 97.681,110.641 98.244,110.272 99.019 M279.617 99.100 C 279.639 99.501,281.162 102.270,281.183 101.949 C 281.211 101.535,280.005 98.800,279.795 98.800 C 279.688 98.800,279.608 98.935,279.617 99.100 M108.650 102.791 C 107.747 105.047,107.887 105.383,108.837 103.242 C 109.266 102.275,109.545 101.412,109.458 101.325 C 109.371 101.238,109.008 101.898,108.650 102.791 M283.732 109.800 C 283.860 110.240,284.175 111.462,284.433 112.515 C 284.691 113.569,284.980 114.353,285.075 114.258 C 285.296 114.037,284.146 109.608,283.778 109.261 C 283.626 109.118,283.605 109.360,283.732 109.800 M105.829 111.429 C 105.681 112.015,105.638 112.572,105.732 112.666 C 105.827 112.760,106.024 112.358,106.171 111.771 C 106.319 111.185,106.362 110.628,106.268 110.534 C 106.173 110.440,105.976 110.842,105.829 111.429 M105.000 114.400 C 104.848 115.091,104.814 115.747,104.924 115.857 C 105.034 115.967,105.248 115.491,105.400 114.800 C 105.552 114.109,105.586 113.453,105.476 113.343 C 105.366 113.233,105.152 113.709,105.000 114.400 M104.229 117.429 C 104.081 118.015,104.038 118.572,104.132 118.666 C 104.227 118.760,104.424 118.358,104.571 117.771 C 104.719 117.185,104.762 116.628,104.668 116.534 C 104.573 116.440,104.376 116.842,104.229 117.429 M103.429 120.629 C 103.281 121.215,103.238 121.772,103.332 121.866 C 103.427 121.960,103.624 121.558,103.771 120.971 C 103.919 120.385,103.962 119.828,103.868 119.734 C 103.773 119.640,103.576 120.042,103.429 120.629 M286.493 120.800 C 286.493 121.570,286.575 121.885,286.676 121.500 C 286.776 121.115,286.776 120.485,286.676 120.100 C 286.575 119.715,286.493 120.030,286.493 120.800 M102.600 124.400 C 102.448 125.091,102.414 125.747,102.524 125.857 C 102.634 125.967,102.848 125.491,103.000 124.800 C 103.152 124.109,103.186 123.453,103.076 123.343 C 102.966 123.233,102.752 123.709,102.600 124.400 M287.301 125.800 C 287.305 126.680,287.387 126.993,287.483 126.495 C 287.579 125.998,287.575 125.278,287.475 124.895 C 287.375 124.513,287.296 124.920,287.301 125.800 M101.785 129.385 C 101.630 130.623,101.590 131.723,101.695 131.829 C 101.801 131.934,102.007 131.001,102.154 129.754 C 102.300 128.507,102.341 127.407,102.243 127.310 C 102.146 127.212,101.939 128.146,101.785 129.385 M287.724 129.800 C 287.726 131.120,287.801 131.612,287.890 130.893 C 287.979 130.174,287.977 129.094,287.886 128.493 C 287.795 127.892,287.722 128.480,287.724 129.800 M101.059 135.460 C 100.726 139.392,100.765 148.145,101.123 150.147 C 101.275 150.998,101.403 147.353,101.406 142.047 C 101.410 136.741,101.391 132.400,101.365 132.400 C 101.339 132.400,101.201 133.777,101.059 135.460 M288.173 141.800 C 288.173 147.080,288.230 149.185,288.299 146.477 C 288.368 143.769,288.368 139.449,288.299 136.877 C 288.229 134.305,288.172 136.520,288.173 141.800 M287.646 152.416 C 287.621 152.975,287.325 154.489,286.988 155.781 C 286.652 157.072,286.437 158.312,286.512 158.535 C 286.739 159.218,288.088 152.933,287.884 152.141 C 287.743 151.597,287.680 151.670,287.646 152.416 M101.640 153.633 C 101.662 154.385,101.830 155.450,102.013 156.000 C 102.229 156.646,102.266 156.220,102.119 154.800 C 101.859 152.283,101.581 151.607,101.640 153.633 M102.456 157.600 C 102.456 157.930,102.611 158.560,102.800 159.000 C 103.017 159.504,103.144 159.578,103.144 159.200 C 103.144 158.870,102.989 158.240,102.800 157.800 C 102.583 157.296,102.456 157.222,102.456 157.600 M284.048 165.248 C 283.367 167.280,282.877 169.011,282.961 169.094 C 283.045 169.178,283.671 167.584,284.352 165.552 C 285.033 163.520,285.523 161.789,285.439 161.706 C 285.355 161.622,284.729 163.216,284.048 165.248 M263.000 166.025 C 262.029 166.307,262.166 166.338,263.715 166.192 C 265.406 166.032,265.675 166.116,266.011 166.906 C 266.385 167.782,266.390 167.780,266.296 166.800 C 266.188 165.677,265.094 165.419,263.000 166.025 M129.200 166.766 C 128.328 166.929,129.233 167.030,131.600 167.034 C 134.411 167.039,134.984 166.963,133.800 166.743 C 131.954 166.400,131.141 166.404,129.200 166.766 M258.200 166.800 C 257.130 167.072,257.108 167.105,258.000 167.105 C 258.550 167.105,259.540 166.968,260.200 166.800 C 261.270 166.528,261.292 166.495,260.400 166.495 C 259.850 166.495,258.860 166.632,258.200 166.800 M125.557 167.799 C 124.440 168.406,123.194 170.044,123.209 170.886 C 123.214 171.169,123.492 170.846,123.826 170.169 C 124.160 169.492,125.100 168.551,125.916 168.078 C 127.546 167.134,127.232 166.889,125.557 167.799 M253.000 167.600 L 251.400 167.886 252.800 167.903 C 253.570 167.913,254.650 167.776,255.200 167.600 C 256.485 167.188,255.299 167.188,253.000 167.600 M247.800 168.400 L 246.200 168.686 247.600 168.696 C 248.370 168.701,249.540 168.568,250.200 168.400 C 251.828 167.986,250.113 167.986,247.800 168.400 M146.400 169.200 C 146.950 169.376,147.760 169.520,148.200 169.520 C 148.833 169.520,148.792 169.454,148.000 169.200 C 147.450 169.024,146.640 168.880,146.200 168.880 C 145.567 168.880,145.608 168.946,146.400 169.200 M242.400 169.200 C 241.338 169.424,241.241 169.502,242.000 169.524 C 242.550 169.541,243.720 169.405,244.600 169.223 C 245.934 168.947,246.000 168.893,245.000 168.899 C 244.340 168.902,243.170 169.038,242.400 169.200 M150.000 170.000 C 150.550 170.176,151.450 170.317,152.000 170.313 C 152.898 170.306,152.878 170.274,151.800 170.000 C 150.108 169.569,148.656 169.569,150.000 170.000 M236.900 170.276 C 237.285 170.376,237.915 170.376,238.300 170.276 C 238.685 170.175,238.370 170.093,237.600 170.093 C 236.830 170.093,236.515 170.175,236.900 170.276 M107.444 171.800 C 107.773 173.271,108.002 173.590,107.994 172.567 C 107.991 172.145,107.805 171.530,107.582 171.200 C 107.285 170.762,107.248 170.924,107.444 171.800 M155.505 171.083 C 156.002 171.179,156.722 171.175,157.105 171.075 C 157.487 170.975,157.080 170.896,156.200 170.901 C 155.320 170.905,155.007 170.987,155.505 171.083 M232.500 171.076 C 232.885 171.176,233.515 171.176,233.900 171.076 C 234.285 170.975,233.970 170.893,233.200 170.893 C 232.430 170.893,232.115 170.975,232.500 171.076 M122.924 173.800 C 122.926 175.120,123.001 175.612,123.090 174.893 C 123.179 174.174,123.177 173.094,123.086 172.493 C 122.995 171.892,122.922 172.480,122.924 173.800 M160.433 171.749 C 160.525 171.831,161.500 172.001,162.600 172.128 C 163.949 172.284,164.274 172.249,163.600 172.020 C 162.601 171.680,160.118 171.468,160.433 171.749 M225.800 172.000 C 224.137 172.423,225.774 172.442,227.800 172.023 C 229.145 171.745,229.209 171.692,228.200 171.693 C 227.540 171.694,226.460 171.832,225.800 172.000 M265.855 173.455 C 265.713 174.486,265.674 175.408,265.769 175.502 C 265.863 175.596,266.065 174.839,266.218 173.818 C 266.371 172.798,266.410 171.876,266.304 171.771 C 266.198 171.665,265.996 172.423,265.855 173.455 M281.045 173.850 C 280.690 174.891,280.413 175.935,280.429 176.171 C 280.445 176.407,280.805 175.624,281.228 174.432 C 281.651 173.240,281.928 172.195,281.844 172.110 C 281.759 172.026,281.400 172.808,281.045 173.850 M166.200 172.823 C 168.226 173.242,169.863 173.223,168.200 172.800 C 167.540 172.632,166.460 172.494,165.800 172.493 C 164.791 172.492,164.855 172.545,166.200 172.823 M221.200 172.820 C 220.526 173.049,220.851 173.084,222.200 172.928 C 223.300 172.801,224.275 172.631,224.367 172.549 C 224.682 172.268,222.199 172.480,221.200 172.820 M217.400 173.619 C 216.842 173.871,217.085 173.907,218.200 173.738 C 219.080 173.604,219.875 173.428,219.967 173.347 C 220.310 173.044,218.168 173.271,217.400 173.619 M108.056 174.000 C 108.056 174.330,108.211 174.960,108.400 175.400 C 108.617 175.904,108.744 175.978,108.744 175.600 C 108.744 175.270,108.589 174.640,108.400 174.200 C 108.183 173.696,108.056 173.622,108.056 174.000 M174.500 174.276 C 174.885 174.376,175.515 174.376,175.900 174.276 C 176.285 174.175,175.970 174.093,175.200 174.093 C 174.430 174.093,174.115 174.175,174.500 174.276 M213.600 174.400 C 212.808 174.654,212.767 174.720,213.400 174.720 C 213.840 174.720,214.650 174.576,215.200 174.400 C 215.992 174.146,216.033 174.080,215.400 174.080 C 214.960 174.080,214.150 174.224,213.600 174.400 M180.033 174.951 C 180.125 175.035,181.640 175.202,183.400 175.323 C 185.806 175.488,186.153 175.458,184.800 175.201 C 182.950 174.850,179.736 174.681,180.033 174.951 M207.000 175.215 C 206.244 175.418,206.762 175.454,208.400 175.315 C 209.830 175.193,211.075 175.028,211.167 174.947 C 211.470 174.680,208.222 174.889,207.000 175.215 M192.719 175.898 C 194.544 175.972,197.424 175.972,199.119 175.897 C 200.814 175.822,199.320 175.761,195.800 175.762 C 192.280 175.762,190.894 175.824,192.719 175.898 M264.582 178.312 C 264.155 179.570,263.219 181.500,262.502 182.600 L 261.197 184.600 262.395 183.220 C 263.545 181.894,265.926 176.593,265.543 176.210 C 265.441 176.108,265.008 177.054,264.582 178.312 M123.206 177.033 C 123.209 177.455,123.395 178.070,123.618 178.400 C 123.915 178.838,123.952 178.676,123.756 177.800 C 123.427 176.329,123.198 176.010,123.206 177.033 M109.062 178.200 C 109.196 179.080,109.372 179.875,109.453 179.967 C 109.756 180.310,109.529 178.168,109.181 177.400 C 108.929 176.842,108.893 177.085,109.062 178.200 M279.850 178.050 C 279.517 179.717,279.840 180.040,280.200 178.400 C 280.352 177.709,280.393 177.059,280.291 176.958 C 280.189 176.856,279.991 177.347,279.850 178.050 M109.882 182.600 C 110.009 183.700,110.177 184.675,110.256 184.767 C 110.555 185.114,110.328 182.164,109.997 181.400 C 109.774 180.885,109.733 181.313,109.882 182.600 M279.053 182.036 C 278.914 182.731,278.823 183.953,278.851 184.750 C 278.885 185.730,279.010 185.363,279.235 183.618 C 279.589 180.883,279.477 179.913,279.053 182.036 M124.818 181.720 C 124.746 183.025,127.290 185.712,131.100 188.353 C 133.580 190.073,132.384 188.833,129.386 186.576 C 127.652 185.272,126.046 183.690,125.604 182.854 C 125.181 182.054,124.827 181.544,124.818 181.720 M257.206 188.740 C 253.673 192.335,253.724 192.523,257.334 189.209 C 258.676 187.977,261.499 184.731,261.134 184.840 C 261.060 184.862,259.293 186.617,257.206 188.740 M110.924 189.800 C 110.926 191.120,111.001 191.612,111.090 190.893 C 111.179 190.174,111.177 189.094,111.086 188.493 C 110.995 187.892,110.922 188.480,110.924 189.800 M132.940 189.503 C 133.132 189.813,153.647 205.330,156.000 206.944 C 156.533 207.310,156.533 207.287,156.000 206.730 C 155.147 205.839,132.649 189.032,132.940 189.503 M250.600 194.256 C 247.695 196.469,247.422 196.742,249.045 195.809 C 250.307 195.083,253.567 192.431,253.200 192.428 C 253.090 192.428,251.920 193.250,250.600 194.256 M111.367 200.400 C 111.367 204.690,111.426 206.445,111.498 204.300 C 111.570 202.155,111.570 198.645,111.498 196.500 C 111.426 194.355,111.367 196.110,111.367 200.400 M278.548 198.800 C 278.548 201.110,278.614 202.055,278.695 200.900 C 278.776 199.745,278.776 197.855,278.695 196.700 C 278.614 195.545,278.548 196.490,278.548 198.800 M243.600 198.986 C 241.510 200.380,239.170 202.094,238.400 202.796 L 237.000 204.072 238.600 202.883 C 239.480 202.228,241.865 200.591,243.900 199.244 C 245.935 197.897,247.600 196.706,247.600 196.597 C 247.600 196.310,247.722 196.237,243.600 198.986 M156.944 207.509 C 157.260 208.021,159.600 209.753,159.600 209.475 C 159.600 209.376,158.939 208.791,158.132 208.175 C 157.324 207.559,156.789 207.259,156.944 207.509 M229.431 209.011 C 226.450 210.942,225.598 211.621,227.200 210.789 C 228.497 210.115,232.400 207.529,232.400 207.343 C 232.400 207.098,232.274 207.169,229.431 209.011 M278.847 210.633 C 278.873 212.155,279.033 213.940,279.201 214.600 C 279.370 215.260,279.414 214.090,279.298 212.000 C 279.051 207.513,278.780 206.693,278.847 210.633 M110.914 210.600 C 110.917 211.700,110.995 212.103,111.087 211.495 C 111.179 210.886,111.177 209.986,111.082 209.495 C 110.987 209.003,110.911 209.500,110.914 210.600 M160.000 209.709 C 160.000 209.836,162.205 211.602,164.900 213.633 C 167.595 215.664,170.025 217.499,170.300 217.711 C 170.575 217.924,170.800 218.008,170.800 217.898 C 170.800 217.788,168.685 216.112,166.100 214.174 C 163.515 212.235,161.085 210.385,160.700 210.062 C 160.315 209.740,160.000 209.581,160.000 209.709 M223.725 212.769 C 222.584 213.594,220.604 215.221,219.325 216.384 C 218.046 217.547,217.810 217.838,218.800 217.030 C 219.790 216.223,221.395 214.986,222.367 214.281 C 224.358 212.837,226.302 211.214,226.000 211.247 C 225.890 211.259,224.866 211.944,223.725 212.769 M110.070 217.450 C 110.031 218.357,109.911 219.707,109.801 220.450 L 109.603 221.800 110.023 220.462 C 110.253 219.727,110.374 218.377,110.291 217.462 L 110.140 215.800 110.070 217.450 M279.681 218.600 C 279.675 219.260,279.810 220.700,279.982 221.800 C 280.287 223.759,280.294 223.767,280.324 222.200 C 280.340 221.320,280.205 219.880,280.023 219.000 C 279.740 217.630,279.690 217.573,279.681 218.600 M172.300 219.176 L 173.600 220.441 173.698 272.520 L 173.797 324.600 173.908 273.000 C 174.030 216.259,174.144 220.137,172.314 218.841 L 171.000 217.911 172.300 219.176 M215.591 220.678 C 214.936 221.711,214.402 222.746,214.405 222.978 C 214.407 223.210,214.872 222.591,215.438 221.602 C 216.003 220.612,216.653 219.577,216.882 219.302 C 217.111 219.026,217.182 218.800,217.040 218.800 C 216.898 218.800,216.246 219.645,215.591 220.678 M109.018 224.618 C 108.865 225.639,108.822 226.555,108.922 226.655 C 109.022 226.755,109.229 226.002,109.382 224.982 C 109.535 223.961,109.578 223.045,109.478 222.945 C 109.378 222.845,109.171 223.598,109.018 224.618 M280.486 225.600 C 280.483 226.370,280.624 227.450,280.800 228.000 C 281.250 229.404,281.265 227.937,280.823 225.800 L 280.492 224.200 280.486 225.600 M213.731 227.800 C 213.733 229.340,213.805 229.921,213.892 229.091 C 213.979 228.261,213.977 227.001,213.889 226.291 C 213.800 225.581,213.729 226.260,213.731 227.800 M108.255 229.055 C 108.113 230.086,108.074 231.008,108.169 231.102 C 108.263 231.196,108.465 230.439,108.618 229.418 C 108.771 228.398,108.810 227.476,108.704 227.371 C 108.598 227.265,108.396 228.023,108.255 229.055 M281.287 230.400 C 281.283 230.950,281.424 231.850,281.600 232.400 C 282.031 233.744,282.031 232.292,281.600 230.600 C 281.326 229.522,281.294 229.502,281.287 230.400 M214.093 232.000 C 214.093 232.770,214.175 233.085,214.276 232.700 C 214.376 232.315,214.376 231.685,214.276 231.300 C 214.175 230.915,214.093 231.230,214.093 232.000 M107.654 232.400 C 107.619 232.950,107.496 233.850,107.383 234.400 L 107.177 235.400 107.607 234.415 C 107.843 233.874,107.965 232.974,107.878 232.415 L 107.720 231.400 107.654 232.400 M282.080 234.600 C 282.080 235.040,282.224 235.850,282.400 236.400 C 282.654 237.192,282.720 237.233,282.720 236.600 C 282.720 236.160,282.576 235.350,282.400 234.800 C 282.146 234.008,282.080 233.967,282.080 234.600 M106.629 237.029 C 106.481 237.615,106.438 238.172,106.532 238.266 C 106.627 238.360,106.824 237.958,106.971 237.371 C 107.119 236.785,107.162 236.228,107.068 236.134 C 106.973 236.040,106.776 236.442,106.629 237.029 M282.922 239.700 C 283.037 240.195,283.356 241.636,283.630 242.902 C 283.904 244.169,284.205 245.128,284.299 245.035 C 284.519 244.815,283.185 238.800,282.916 238.800 C 282.805 238.800,282.807 239.205,282.922 239.700 M105.850 240.450 C 105.517 242.117,105.840 242.440,106.200 240.800 C 106.352 240.109,106.393 239.459,106.291 239.358 C 106.189 239.256,105.991 239.747,105.850 240.450 M104.978 244.178 C 104.827 244.981,104.794 245.727,104.904 245.837 C 105.014 245.947,105.227 245.381,105.378 244.578 C 105.528 243.775,105.562 243.028,105.452 242.918 C 105.342 242.808,105.128 243.375,104.978 244.178 M284.480 246.200 C 284.480 246.640,284.624 247.450,284.800 248.000 C 285.054 248.792,285.120 248.833,285.120 248.200 C 285.120 247.760,284.976 246.950,284.800 246.400 C 284.546 245.608,284.480 245.567,284.480 246.200 M104.229 247.429 C 104.081 248.015,104.038 248.572,104.132 248.666 C 104.227 248.760,104.424 248.358,104.571 247.771 C 104.719 247.185,104.762 246.628,104.668 246.534 C 104.573 246.440,104.376 246.842,104.229 247.429 M103.429 250.229 C 103.281 250.815,103.251 251.384,103.361 251.494 C 103.471 251.604,103.681 251.215,103.829 250.629 C 103.976 250.042,104.006 249.473,103.896 249.363 C 103.786 249.253,103.576 249.642,103.429 250.229 M285.268 249.600 C 285.288 250.639,285.918 252.346,285.932 251.400 C 285.938 250.960,285.789 250.240,285.600 249.800 C 285.389 249.310,285.261 249.232,285.268 249.600 M286.435 253.871 C 286.387 254.520,288.311 261.645,288.617 261.951 C 288.904 262.237,288.630 261.063,287.372 256.600 C 286.876 254.840,286.454 253.612,286.435 253.871 M101.435 257.835 C 101.067 259.301,100.840 260.574,100.931 260.664 C 101.021 260.755,101.397 259.630,101.765 258.165 C 102.133 256.699,102.360 255.426,102.269 255.336 C 102.179 255.245,101.803 256.370,101.435 257.835 M100.229 262.229 C 100.081 262.815,100.038 263.372,100.132 263.466 C 100.227 263.560,100.424 263.158,100.571 262.571 C 100.719 261.985,100.762 261.428,100.668 261.334 C 100.573 261.240,100.376 261.642,100.229 262.229 M288.806 263.033 C 288.809 263.455,288.995 264.070,289.218 264.400 C 289.515 264.838,289.552 264.676,289.356 263.800 C 289.027 262.329,288.798 262.010,288.806 263.033 M99.449 265.015 C 99.312 265.373,99.215 265.966,99.234 266.333 C 99.253 266.700,99.427 266.469,99.621 265.820 C 99.998 264.558,99.865 263.933,99.449 265.015 M98.401 269.278 C 98.131 270.445,97.220 272.480,96.376 273.800 C 94.742 276.352,93.433 279.166,93.737 279.470 C 93.838 279.571,94.128 279.024,94.382 278.255 C 94.635 277.486,95.581 275.719,96.482 274.329 C 97.952 272.061,99.530 267.796,99.069 267.335 C 98.971 267.237,98.670 268.112,98.401 269.278 M290.412 268.400 C 290.412 268.730,290.587 269.270,290.800 269.600 C 291.145 270.133,291.188 270.133,291.188 269.600 C 291.188 269.270,291.013 268.730,290.800 268.400 C 290.455 267.867,290.412 267.867,290.412 268.400 M291.240 270.538 C 291.175 271.093,292.460 275.274,292.640 275.093 C 292.732 275.002,292.463 273.863,292.043 272.564 C 291.623 271.264,291.262 270.352,291.240 270.538 M293.612 278.400 C 293.612 278.730,293.787 279.270,294.000 279.600 C 294.345 280.133,294.388 280.133,294.388 279.600 C 294.388 279.270,294.213 278.730,294.000 278.400 C 293.655 277.867,293.612 277.867,293.612 278.400 M294.412 280.800 C 294.412 281.130,294.587 281.670,294.800 282.000 C 295.145 282.533,295.188 282.533,295.188 282.000 C 295.188 281.670,295.013 281.130,294.800 280.800 C 294.455 280.267,294.412 280.267,294.412 280.800 M92.901 282.600 C 92.905 283.480,92.987 283.793,93.083 283.295 C 93.179 282.798,93.175 282.078,93.075 281.695 C 92.975 281.313,92.896 281.720,92.901 282.600 M92.901 286.600 C 92.905 287.480,92.987 287.793,93.083 287.295 C 93.179 286.798,93.175 286.078,93.075 285.695 C 92.975 285.313,92.896 285.720,92.901 286.600 M93.409 289.400 C 93.841 291.556,96.883 296.027,100.174 299.346 C 103.549 302.750,109.611 307.892,109.584 307.328 C 109.576 307.147,108.290 306.010,106.727 304.800 C 100.600 300.057,95.727 294.436,93.915 290.021 C 93.409 288.787,93.245 288.587,93.409 289.400 M289.781 297.312 C 282.381 304.811,283.309 304.045,292.983 294.668 C 295.613 292.118,297.675 289.941,297.564 289.831 C 297.453 289.720,293.951 293.086,289.781 297.312 M280.370 306.300 L 279.400 307.400 280.600 306.400 C 281.260 305.850,281.875 305.355,281.967 305.300 C 282.058 305.245,281.955 305.200,281.736 305.200 C 281.518 305.200,280.903 305.695,280.370 306.300 M273.863 312.161 C 271.037 314.664,266.594 318.398,263.989 320.457 C 261.383 322.515,259.240 324.346,259.226 324.525 C 259.191 324.967,268.718 317.181,274.500 312.043 C 278.711 308.301,279.448 307.590,279.100 307.604 C 279.045 307.606,276.688 309.657,273.863 312.161 M111.400 309.072 C 112.873 310.624,122.745 319.121,126.694 322.237 C 128.842 323.932,130.915 325.590,131.300 325.921 C 131.685 326.253,132.000 326.419,132.000 326.292 C 132.000 326.164,129.954 324.439,127.453 322.459 C 124.952 320.479,120.497 316.750,117.553 314.172 C 114.609 311.594,111.840 309.203,111.400 308.857 L 110.600 308.230 111.400 309.072 M256.400 326.422 C 255.190 327.293,253.176 328.723,251.925 329.601 C 250.673 330.478,249.513 331.422,249.345 331.698 C 249.177 331.974,249.661 331.739,250.420 331.176 C 251.179 330.613,253.375 329.018,255.300 327.630 C 258.280 325.482,259.199 324.722,258.700 324.819 C 258.645 324.830,257.610 325.551,256.400 326.422 M132.400 326.543 C 132.400 326.643,133.319 327.385,134.442 328.192 C 135.565 328.999,136.365 329.468,136.221 329.234 C 135.920 328.748,132.400 326.268,132.400 326.543 M173.293 338.887 C 173.206 348.862,173.153 349.560,172.500 349.350 C 171.915 349.161,171.898 349.194,172.397 349.546 C 173.513 350.333,173.614 349.349,173.500 338.773 L 173.386 328.200 173.293 338.887 M138.166 330.745 C 138.316 330.988,139.645 331.964,141.119 332.914 C 144.436 335.052,145.133 335.452,144.600 334.913 C 143.861 334.167,137.890 330.298,138.166 330.745 M244.950 334.362 C 243.603 335.217,240.948 336.850,239.050 337.993 C 237.153 339.135,235.600 340.154,235.600 340.258 C 235.600 340.505,235.670 340.465,242.100 336.506 C 246.823 333.599,248.011 332.784,247.500 332.804 C 247.445 332.806,246.298 333.507,244.950 334.362 M147.800 337.081 C 148.020 337.308,149.100 337.997,150.200 338.613 C 151.300 339.228,152.020 339.546,151.800 339.319 C 151.580 339.092,150.500 338.403,149.400 337.787 C 148.300 337.172,147.580 336.854,147.800 337.081 M154.000 340.786 C 154.933 341.481,159.200 343.636,159.200 343.412 C 159.200 343.302,158.075 342.625,156.700 341.909 C 153.909 340.454,153.107 340.120,154.000 340.786 M233.500 341.029 C 231.949 341.870,232.125 342.161,233.700 341.359 C 235.208 340.593,235.475 340.394,234.967 340.416 C 234.765 340.425,234.105 340.701,233.500 341.029 M227.200 344.400 C 226.430 344.822,225.944 345.174,226.120 345.183 C 226.544 345.205,228.800 344.032,228.800 343.790 C 228.800 343.528,228.777 343.537,227.200 344.400 M161.233 344.549 C 161.645 344.917,164.000 346.000,164.000 345.821 C 164.000 345.590,161.782 344.400,161.353 344.400 C 161.196 344.400,161.142 344.467,161.233 344.549 M223.700 345.834 C 222.985 346.146,222.400 346.494,222.400 346.607 C 222.400 346.815,225.206 345.727,225.546 345.387 C 225.886 345.047,225.020 345.257,223.700 345.834 " stroke="none" fill="#acacac" fill-rule="evenodd"></path><path id="path3" d="M185.400 47.987 C 182.488 48.112,186.799 48.220,195.200 48.232 C 203.450 48.243,209.390 48.119,208.400 47.956 C 206.394 47.625,193.404 47.643,185.400 47.987 M174.400 48.678 C 169.525 49.199,158.169 52.445,153.031 54.786 C 150.842 55.783,150.551 56.290,152.700 55.364 C 159.379 52.485,168.116 50.027,175.800 48.865 C 178.147 48.511,177.177 48.381,174.400 48.678 M213.200 48.850 C 217.046 49.506,224.581 51.173,226.661 51.828 C 227.323 52.036,227.330 52.015,226.730 51.627 C 225.711 50.968,216.543 48.910,213.600 48.678 L 211.000 48.474 213.200 48.850 M228.000 52.286 C 231.400 53.547,236.000 55.098,236.000 54.983 C 236.000 54.559,228.810 51.961,227.834 52.032 C 227.595 52.049,227.670 52.163,228.000 52.286 M236.433 55.342 C 236.928 55.764,244.390 59.108,244.219 58.831 C 244.107 58.650,243.067 58.044,241.908 57.484 C 238.648 55.912,235.790 54.793,236.433 55.342 M147.600 57.260 C 144.223 59.087,144.223 59.470,147.600 57.795 C 150.940 56.137,151.180 55.985,150.367 56.035 C 150.055 56.054,148.810 56.605,147.600 57.260 M244.800 59.390 C 244.800 59.494,245.385 59.865,246.100 60.214 L 247.400 60.848 246.400 60.033 C 245.437 59.248,244.800 58.992,244.800 59.390 M140.707 61.326 C 139.666 62.026,138.811 62.729,138.807 62.886 C 138.801 63.145,142.050 61.159,142.980 60.336 C 143.904 59.519,142.450 60.152,140.707 61.326 M247.633 60.965 C 247.725 61.055,249.060 61.991,250.600 63.045 C 259.562 69.174,266.401 75.996,272.037 84.428 C 273.638 86.824,275.020 88.714,275.106 88.627 C 275.375 88.359,269.811 80.335,267.600 77.800 C 263.931 73.596,263.412 73.060,259.973 69.935 C 256.363 66.655,254.446 65.143,250.522 62.481 C 248.464 61.085,246.952 60.292,247.633 60.965 M137.134 63.902 C 134.663 65.519,126.215 73.148,126.537 73.470 C 126.603 73.536,127.544 72.738,128.629 71.695 C 130.893 69.518,135.638 65.416,137.401 64.113 C 138.829 63.056,138.647 62.912,137.134 63.902 M124.127 75.917 C 119.195 81.493,110.000 96.232,110.000 98.562 C 110.000 99.285,110.544 98.371,111.594 95.883 C 113.696 90.900,120.189 80.914,124.197 76.500 C 125.446 75.125,126.317 74.006,126.134 74.013 C 125.950 74.021,125.047 74.877,124.127 75.917 M277.088 92.765 C 278.945 96.227,279.743 97.317,278.697 94.961 C 277.998 93.387,275.566 89.200,275.350 89.200 C 275.255 89.200,276.037 90.804,277.088 92.765 M279.200 97.013 C 279.200 97.131,279.629 98.076,280.154 99.113 C 280.678 100.151,281.603 102.400,282.209 104.111 C 282.816 105.822,283.376 107.157,283.455 107.078 C 283.668 106.866,281.842 101.741,280.612 99.100 C 279.657 97.048,279.200 96.373,279.200 97.013 M107.845 103.243 C 107.749 103.549,107.475 104.412,107.235 105.160 C 106.496 107.469,106.813 107.527,107.628 105.232 C 108.051 104.040,108.312 102.979,108.208 102.875 C 108.104 102.771,107.940 102.936,107.845 103.243 M106.249 108.215 C 106.112 108.573,106.015 109.166,106.034 109.533 C 106.053 109.900,106.227 109.669,106.421 109.020 C 106.798 107.758,106.665 107.133,106.249 108.215 M283.612 108.000 C 283.612 108.330,283.787 108.870,284.000 109.200 C 284.345 109.733,284.388 109.733,284.388 109.200 C 284.388 108.870,284.213 108.330,284.000 108.000 C 283.655 107.467,283.612 107.467,283.612 108.000 M284.400 110.151 C 284.400 110.941,285.761 115.717,285.882 115.353 C 286.034 114.899,284.950 110.417,284.606 110.073 C 284.493 109.959,284.400 109.995,284.400 110.151 M105.060 112.470 C 103.637 117.411,102.801 120.843,102.814 121.693 C 102.822 122.192,103.524 119.900,104.375 116.600 C 105.869 110.803,106.315 108.117,105.060 112.470 M286.068 116.600 C 286.062 117.040,286.211 117.760,286.400 118.200 C 286.838 119.219,286.838 118.168,286.400 116.800 C 286.143 115.996,286.077 115.957,286.068 116.600 M286.868 121.000 C 286.874 121.440,287.024 122.250,287.200 122.800 L 287.520 123.800 287.532 122.800 C 287.538 122.250,287.389 121.440,287.200 121.000 L 286.856 120.200 286.868 121.000 M102.243 123.871 C 100.705 131.317,99.934 140.508,100.370 146.200 C 100.660 149.974,100.680 149.792,100.738 142.970 C 100.795 136.359,101.299 130.949,102.390 125.235 C 102.618 124.045,102.730 122.997,102.640 122.907 C 102.550 122.817,102.371 123.251,102.243 123.871 M287.877 127.200 C 288.006 128.850,288.176 130.275,288.256 130.367 C 288.566 130.725,288.323 125.753,287.994 125.000 C 287.778 124.506,287.733 125.347,287.877 127.200 M288.441 141.633 C 288.466 148.022,288.611 151.653,288.807 150.818 C 289.162 149.309,289.001 131.668,288.629 131.296 C 288.503 131.170,288.418 135.822,288.441 141.633 M101.045 152.800 C 101.242 155.302,102.310 159.824,102.628 159.505 C 102.713 159.420,102.525 158.372,102.209 157.175 C 101.894 155.979,101.456 153.920,101.238 152.600 L 100.840 150.200 101.045 152.800 M288.059 153.200 C 288.020 153.750,287.889 154.650,287.767 155.200 C 287.576 156.062,287.608 156.102,287.997 155.491 C 288.246 155.102,288.377 154.202,288.289 153.491 C 288.164 152.487,288.113 152.422,288.059 153.200 M287.029 157.429 C 286.881 158.015,286.838 158.572,286.932 158.666 C 287.027 158.760,287.224 158.358,287.371 157.771 C 287.519 157.185,287.562 156.628,287.468 156.534 C 287.373 156.440,287.176 156.842,287.029 157.429 M285.034 163.834 C 284.225 166.178,283.661 168.194,283.781 168.315 C 283.902 168.435,284.000 168.452,284.000 168.353 C 284.000 168.254,284.634 166.308,285.409 164.029 C 286.184 161.750,286.748 159.815,286.662 159.729 C 286.577 159.643,285.844 161.491,285.034 163.834 M102.822 160.681 C 102.801 161.541,102.990 162.109,104.397 165.400 C 106.230 169.685,106.559 170.374,106.704 170.229 C 106.790 170.143,106.277 168.751,105.564 167.136 C 104.850 165.521,103.946 163.210,103.555 162.000 C 103.163 160.790,102.833 160.197,102.822 160.681 M260.800 166.788 C 260.030 166.967,258.320 167.247,257.000 167.410 C 255.680 167.573,254.802 167.780,255.049 167.870 C 255.296 167.959,257.352 167.755,259.619 167.416 C 261.886 167.077,264.185 166.800,264.728 166.800 L 265.715 166.800 265.477 170.900 C 265.346 173.155,265.135 175.450,265.008 176.000 L 264.777 177.000 265.234 176.000 C 265.485 175.450,265.715 173.110,265.745 170.800 L 265.800 166.600 264.000 166.531 C 263.010 166.493,261.570 166.609,260.800 166.788 M126.200 168.113 C 124.177 169.250,123.184 171.167,123.255 173.800 L 123.309 175.800 123.586 173.400 C 124.166 168.358,125.796 167.407,133.390 167.679 C 136.389 167.786,137.921 167.734,137.000 167.555 C 133.433 166.866,127.912 167.150,126.200 168.113 M140.000 168.400 C 140.550 168.576,141.360 168.726,141.800 168.732 L 142.600 168.744 141.800 168.400 C 141.360 168.211,140.550 168.062,140.000 168.068 L 139.000 168.080 140.000 168.400 M250.800 168.400 L 249.800 168.720 250.800 168.713 C 251.350 168.709,252.340 168.568,253.000 168.400 L 254.200 168.095 253.000 168.087 C 252.340 168.083,251.350 168.224,250.800 168.400 M143.600 169.200 C 144.150 169.376,145.050 169.520,145.600 169.520 L 146.600 169.520 145.600 169.200 C 145.050 169.024,144.150 168.880,143.600 168.880 L 142.600 168.880 143.600 169.200 M245.800 169.200 L 244.600 169.505 245.800 169.505 C 246.460 169.505,247.540 169.368,248.200 169.200 L 249.400 168.895 248.200 168.895 C 247.540 168.895,246.460 169.032,245.800 169.200 M147.400 170.000 C 147.840 170.189,148.650 170.344,149.200 170.344 C 150.112 170.344,150.129 170.313,149.400 170.000 C 148.960 169.811,148.150 169.656,147.600 169.656 C 146.688 169.656,146.671 169.687,147.400 170.000 M240.400 169.996 C 239.630 170.170,238.129 170.435,237.063 170.586 C 235.998 170.737,235.217 170.950,235.327 171.060 C 235.533 171.267,244.068 170.035,244.367 169.756 C 244.647 169.494,241.886 169.661,240.400 169.996 M151.200 170.800 C 151.750 170.976,152.650 171.120,153.200 171.120 L 154.200 171.120 153.200 170.800 C 152.650 170.624,151.750 170.480,151.200 170.480 L 150.200 170.480 151.200 170.800 M106.840 171.080 C 106.785 171.747,107.931 176.067,108.241 176.361 C 108.380 176.492,108.359 175.974,108.195 175.209 C 107.761 173.186,106.886 170.520,106.840 171.080 M156.600 171.600 C 157.040 171.789,157.850 171.938,158.400 171.932 L 159.400 171.920 158.400 171.600 C 157.850 171.424,157.040 171.274,156.600 171.268 L 155.800 171.256 156.600 171.600 M231.200 171.600 L 230.200 171.920 231.200 171.954 C 231.750 171.973,232.470 171.813,232.800 171.600 C 233.564 171.106,232.742 171.106,231.200 171.600 M281.469 174.275 C 280.912 175.994,280.360 178.030,280.242 178.800 L 280.029 180.200 280.476 178.800 C 282.443 172.646,282.788 171.455,282.645 171.312 C 282.556 171.222,282.027 172.556,281.469 174.275 M161.000 172.400 C 161.440 172.589,162.340 172.735,163.000 172.725 L 164.200 172.705 163.000 172.400 C 162.340 172.232,161.440 172.086,161.000 172.075 L 160.200 172.056 161.000 172.400 M226.400 172.400 L 225.000 172.695 226.400 172.719 C 227.170 172.733,228.160 172.589,228.600 172.400 L 229.400 172.056 228.600 172.081 C 228.160 172.094,227.170 172.238,226.400 172.400 M165.400 173.200 C 165.840 173.389,166.740 173.535,167.400 173.525 L 168.600 173.505 167.400 173.200 C 166.740 173.032,165.840 172.886,165.400 172.875 L 164.600 172.856 165.400 173.200 M221.800 173.200 L 220.600 173.505 222.000 173.525 C 222.770 173.535,223.760 173.389,224.200 173.200 C 225.264 172.743,223.597 172.743,221.800 173.200 M169.800 174.000 C 170.460 174.168,171.540 174.305,172.200 174.305 L 173.400 174.305 172.200 174.000 C 171.540 173.832,170.460 173.695,169.800 173.695 L 168.600 173.695 169.800 174.000 M217.600 174.000 L 216.600 174.320 217.600 174.320 C 218.150 174.320,219.050 174.176,219.600 174.000 L 220.600 173.680 219.600 173.680 C 219.050 173.680,218.150 173.824,217.600 174.000 M175.000 174.786 C 175.757 175.125,179.121 175.364,178.767 175.054 C 178.675 174.974,177.610 174.800,176.400 174.668 C 174.963 174.512,174.478 174.552,175.000 174.786 M213.600 174.800 C 212.233 175.088,212.228 175.095,213.400 175.119 C 214.060 175.133,214.960 174.989,215.400 174.800 C 216.362 174.387,215.564 174.387,213.600 174.800 M181.400 175.612 C 182.167 175.930,187.510 176.154,187.167 175.855 C 187.075 175.775,185.560 175.613,183.800 175.495 C 181.949 175.371,180.937 175.421,181.400 175.612 M207.000 175.600 L 205.000 175.874 207.200 175.931 C 208.410 175.962,209.670 175.813,210.000 175.600 C 210.695 175.151,210.276 175.151,207.000 175.600 M123.656 176.600 C 123.656 177.040,123.811 177.760,124.000 178.200 L 124.344 179.000 124.344 178.200 C 124.344 177.760,124.189 177.040,124.000 176.600 L 123.656 175.800 123.656 176.600 M193.241 176.431 C 195.793 176.604,199.123 176.601,200.641 176.425 C 202.771 176.178,201.713 176.106,196.000 176.110 C 188.715 176.116,188.672 176.121,193.241 176.431 M108.406 177.833 C 108.409 178.475,108.596 179.270,108.821 179.600 C 109.114 180.030,109.154 179.746,108.962 178.600 C 108.630 176.616,108.398 176.296,108.406 177.833 M262.200 181.919 C 259.190 186.865,254.469 191.156,245.400 197.188 C 242.320 199.237,238.630 201.850,237.200 202.995 C 234.506 205.153,229.823 208.400,229.405 208.400 C 229.274 208.400,228.769 208.786,228.283 209.259 C 227.797 209.731,227.670 209.972,228.000 209.793 C 229.504 208.981,235.979 204.536,237.600 203.203 C 238.590 202.389,241.650 200.226,244.400 198.395 C 251.682 193.547,255.024 190.906,258.400 187.333 C 261.073 184.504,264.369 179.817,263.956 179.433 C 263.870 179.354,263.080 180.472,262.200 181.919 M124.417 179.900 C 124.439 180.301,125.962 183.070,125.983 182.749 C 126.011 182.335,124.805 179.600,124.595 179.600 C 124.488 179.600,124.408 179.735,124.417 179.900 M279.436 183.139 C 279.275 184.755,279.231 186.164,279.337 186.270 C 279.601 186.534,280.131 181.390,279.907 180.730 C 279.809 180.439,279.597 181.522,279.436 183.139 M109.268 181.600 C 109.262 182.150,109.411 182.960,109.600 183.400 L 109.944 184.200 109.932 183.400 C 109.926 182.960,109.776 182.150,109.600 181.600 L 109.280 180.600 109.268 181.600 M126.000 183.504 C 126.000 183.723,128.105 185.499,130.679 187.451 C 136.814 192.105,136.804 192.097,136.777 191.723 C 136.765 191.545,135.019 190.140,132.898 188.600 C 130.777 187.060,128.357 185.194,127.521 184.453 C 126.684 183.713,126.000 183.286,126.000 183.504 M110.286 189.400 C 110.407 191.380,110.572 193.075,110.653 193.167 C 110.933 193.485,110.704 188.194,110.386 187.000 C 110.199 186.302,110.158 187.305,110.286 189.400 M278.968 197.400 C 278.968 201.800,279.026 203.655,279.098 201.521 C 279.170 199.388,279.170 195.788,279.099 193.521 C 279.027 191.255,278.968 193.000,278.968 197.400 M137.200 192.157 C 137.200 192.259,138.325 193.190,139.700 194.225 C 141.075 195.261,142.425 196.286,142.700 196.503 C 142.975 196.720,143.193 196.741,143.185 196.549 C 143.171 196.231,142.420 195.644,138.500 192.886 C 137.785 192.383,137.200 192.055,137.200 192.157 M110.960 200.200 C 110.961 203.500,111.022 204.797,111.098 203.082 C 111.173 201.367,111.172 198.667,111.097 197.082 C 111.021 195.497,110.959 196.900,110.960 200.200 M144.797 197.944 C 145.566 198.601,146.273 199.060,146.368 198.965 C 146.566 198.767,145.386 197.788,144.200 197.168 C 143.760 196.937,144.029 197.286,144.797 197.944 M146.800 199.319 C 146.800 199.591,156.047 206.487,156.202 206.331 C 156.275 206.258,155.145 205.298,153.690 204.199 C 149.518 201.046,146.800 199.121,146.800 199.319 M157.600 207.533 C 158.150 207.970,162.020 210.919,166.200 214.087 L 173.800 219.849 173.800 284.691 C 173.800 320.354,173.668 349.665,173.507 349.827 C 173.212 350.122,166.184 347.283,161.900 345.140 C 160.635 344.506,159.600 344.092,159.600 344.220 C 159.600 344.347,161.265 345.223,163.300 346.167 C 173.658 350.973,173.429 350.903,173.994 349.416 C 174.263 348.709,174.400 326.575,174.400 284.029 L 174.400 219.710 166.100 213.527 C 161.535 210.127,157.530 207.208,157.200 207.042 C 156.870 206.876,157.050 207.097,157.600 207.533 M279.308 209.000 C 279.303 210.100,279.429 212.260,279.587 213.800 L 279.874 216.600 279.894 214.200 C 279.904 212.880,279.779 210.720,279.615 209.400 L 279.318 207.000 279.308 209.000 M110.237 210.928 C 110.064 212.869,110.014 214.547,110.125 214.658 C 110.397 214.930,110.926 209.121,110.716 208.162 C 110.624 207.743,110.409 208.988,110.237 210.928 M223.000 212.629 C 218.290 216.176,213.965 221.064,214.020 222.778 C 214.031 223.120,214.418 222.620,214.880 221.666 C 216.306 218.725,219.953 215.144,225.214 211.521 C 225.756 211.148,226.020 210.837,225.800 210.832 C 225.580 210.826,224.320 211.635,223.000 212.629 M280.053 217.285 C 279.982 218.207,281.537 229.791,282.001 231.800 L 282.371 233.400 282.220 231.600 C 281.891 227.672,280.142 216.120,280.053 217.285 M109.456 218.484 C 109.321 218.988,109.230 220.030,109.252 220.800 C 109.286 221.934,109.362 221.789,109.652 220.039 C 110.020 217.825,109.896 216.843,109.456 218.484 M108.673 223.353 C 108.523 223.745,108.418 224.636,108.440 225.333 C 108.479 226.567,108.490 226.559,108.849 225.027 C 109.245 223.337,109.124 222.179,108.673 223.353 M213.449 224.215 C 213.312 224.573,213.216 225.256,213.236 225.733 C 213.262 226.347,213.385 226.208,213.659 225.256 C 214.057 223.872,213.894 223.058,213.449 224.215 M107.889 227.600 C 107.736 228.150,107.627 229.140,107.646 229.800 C 107.677 230.892,107.714 230.858,108.052 229.411 C 108.475 227.606,108.331 226.011,107.889 227.600 M213.268 230.000 C 213.262 230.550,213.411 231.360,213.600 231.800 L 213.944 232.600 213.932 231.800 C 213.926 231.360,213.776 230.550,213.600 230.000 L 213.280 229.000 213.268 230.000 M106.982 232.982 C 106.829 234.002,106.802 234.935,106.922 235.055 C 107.042 235.175,107.265 234.439,107.418 233.418 C 107.571 232.398,107.598 231.465,107.478 231.345 C 107.358 231.225,107.135 231.961,106.982 232.982 M282.840 236.633 C 282.862 237.275,283.033 238.250,283.220 238.800 C 283.449 239.474,283.484 239.149,283.328 237.800 C 283.069 235.550,282.779 234.859,282.840 236.633 M106.249 236.615 C 106.112 236.973,106.018 237.656,106.041 238.133 C 106.067 238.681,106.203 238.486,106.410 237.603 C 106.760 236.116,106.665 235.533,106.249 236.615 M105.449 239.815 C 105.312 240.173,105.216 240.856,105.236 241.333 C 105.262 241.947,105.385 241.808,105.659 240.856 C 106.057 239.472,105.894 238.658,105.449 239.815 M283.656 240.600 C 283.656 241.040,283.811 241.760,284.000 242.200 L 284.344 243.000 284.344 242.200 C 284.344 241.760,284.189 241.040,284.000 240.600 L 283.656 239.800 283.656 240.600 M104.623 243.400 C 103.650 247.628,102.509 252.098,101.200 256.800 C 99.504 262.896,98.992 265.109,99.357 264.763 C 99.818 264.327,105.266 243.184,105.060 242.632 C 104.971 242.394,104.774 242.740,104.623 243.400 M284.400 243.433 C 284.401 244.086,285.643 249.776,285.824 249.958 C 286.168 250.302,285.991 248.810,285.368 246.127 C 284.786 243.613,284.400 242.539,284.400 243.433 M286.068 251.000 C 286.062 251.440,286.211 252.160,286.400 252.600 C 286.838 253.619,286.838 252.568,286.400 251.200 C 286.143 250.396,286.077 250.357,286.068 251.000 M287.634 256.800 C 287.646 257.130,287.811 257.760,288.000 258.200 L 288.344 259.000 288.366 258.200 C 288.378 257.760,288.213 257.130,288.000 256.800 C 287.655 256.267,287.615 256.267,287.634 256.800 M288.405 259.633 C 288.413 260.404,289.918 265.123,289.964 264.520 C 290.010 263.910,288.881 259.548,288.606 259.273 C 288.493 259.159,288.402 259.322,288.405 259.633 M98.650 266.450 C 98.317 268.117,98.640 268.440,99.000 266.800 C 99.152 266.109,99.193 265.459,99.091 265.358 C 98.989 265.256,98.791 265.747,98.650 266.450 M290.934 268.513 C 291.072 268.905,291.569 270.490,292.038 272.034 C 292.507 273.579,292.977 274.756,293.083 274.651 C 293.343 274.391,291.574 268.702,291.078 268.200 C 290.816 267.935,290.767 268.041,290.934 268.513 M97.829 269.429 C 97.681 270.015,97.638 270.572,97.732 270.666 C 97.827 270.760,98.024 270.358,98.171 269.771 C 98.319 269.185,98.362 268.628,98.268 268.534 C 98.173 268.440,97.976 268.842,97.829 269.429 M96.393 272.927 C 94.932 275.388,94.947 275.679,96.423 273.488 C 97.131 272.437,97.637 271.504,97.548 271.415 C 97.460 271.326,96.940 272.007,96.393 272.927 M293.228 275.876 C 293.318 276.915,293.944 277.796,293.972 276.924 C 293.987 276.442,293.820 275.936,293.600 275.800 C 293.380 275.664,293.213 275.698,293.228 275.876 M93.423 278.206 C 92.522 280.364,92.711 280.928,93.637 278.842 C 94.066 277.875,94.334 277.000,94.232 276.898 C 94.130 276.797,93.766 277.385,93.423 278.206 M294.004 278.033 C 294.014 278.485,297.162 286.940,297.179 286.563 C 297.207 285.980,294.623 278.490,294.274 278.141 C 294.123 277.990,294.002 277.942,294.004 278.033 M92.252 282.100 C 91.938 283.272,92.002 286.328,92.367 287.600 C 92.533 288.177,92.648 287.035,92.640 284.900 C 92.624 280.877,92.609 280.767,92.252 282.100 M297.232 287.274 C 297.215 287.425,297.395 288.055,297.634 288.674 C 298.059 289.777,297.881 289.984,288.734 298.986 C 283.600 304.038,280.570 307.111,282.000 305.816 C 286.144 302.062,297.591 290.764,297.973 290.050 C 298.190 289.645,298.122 288.946,297.793 288.200 C 297.503 287.540,297.250 287.123,297.232 287.274 M92.828 289.476 C 92.813 289.958,92.980 290.464,93.200 290.600 C 93.673 290.892,93.673 290.501,93.200 289.400 C 92.869 288.629,92.855 288.631,92.828 289.476 M93.609 291.500 C 93.614 291.665,93.985 292.250,94.433 292.800 L 95.248 293.800 94.614 292.500 C 94.011 291.265,93.589 290.845,93.609 291.500 M96.000 295.498 C 96.000 296.019,103.985 303.975,104.996 304.461 C 105.486 304.697,105.331 304.429,104.600 303.776 C 101.775 301.251,99.648 299.170,97.884 297.209 C 96.848 296.056,96.000 295.287,96.000 295.498 M106.000 305.002 C 106.000 305.352,106.757 306.055,108.300 307.140 C 110.181 308.463,109.896 307.939,107.800 306.221 C 106.810 305.410,106.000 304.861,106.000 305.002 M110.800 309.270 C 111.609 310.097,117.804 315.536,123.200 320.158 C 123.750 320.629,124.830 321.429,125.600 321.936 C 126.718 322.672,126.640 322.550,125.215 321.329 C 124.233 320.488,120.718 317.460,117.405 314.600 C 111.047 309.112,109.134 307.568,110.800 309.270 M274.400 312.295 C 262.827 322.667,246.223 334.868,237.460 339.441 C 236.393 339.998,235.607 340.541,235.713 340.646 C 236.079 341.012,248.233 333.532,252.477 330.330 C 253.447 329.599,255.381 328.190,256.776 327.200 C 258.171 326.210,260.078 324.770,261.014 324.000 C 261.950 323.230,263.847 321.700,265.230 320.600 C 270.256 316.603,278.590 309.249,278.348 309.026 C 278.266 308.951,276.490 310.422,274.400 312.295 M127.212 323.118 C 127.219 323.273,128.071 324.030,129.105 324.800 C 130.139 325.570,131.258 326.413,131.592 326.674 C 135.153 329.450,143.277 335.076,146.200 336.790 C 149.072 338.474,147.104 336.973,142.000 333.586 C 139.250 331.762,134.795 328.597,132.100 326.553 C 129.405 324.509,127.206 322.963,127.212 323.118 M148.000 337.743 C 148.000 338.075,152.873 340.860,153.084 340.649 C 153.186 340.548,152.848 340.246,152.334 339.977 C 151.820 339.709,150.635 339.048,149.700 338.507 C 148.765 337.966,148.000 337.622,148.000 337.743 M154.200 341.413 C 155.151 342.187,158.825 344.109,159.005 343.927 C 159.075 343.857,157.842 343.117,156.266 342.281 C 154.690 341.446,153.760 341.055,154.200 341.413 M230.000 343.417 C 228.130 344.404,225.200 345.774,223.489 346.461 C 220.163 347.797,219.472 348.364,222.399 347.355 C 224.671 346.573,233.133 342.431,233.425 341.960 C 233.744 341.443,233.733 341.448,230.000 343.417 M217.411 349.026 C 216.097 349.571,214.792 349.929,214.511 349.821 C 214.230 349.713,214.000 349.799,214.000 350.013 C 214.000 350.786,218.470 349.488,219.780 348.335 C 220.335 347.846,220.057 347.927,217.411 349.026 " stroke="none" fill="#868686" fill-rule="evenodd"></path><path id="path4" d="M195.091 48.289 C 195.801 48.377,197.061 48.379,197.891 48.292 C 198.721 48.205,198.140 48.133,196.600 48.131 C 195.060 48.129,194.381 48.200,195.091 48.289 M128.378 71.900 L 127.000 73.400 128.500 72.022 C 129.325 71.263,130.000 70.588,130.000 70.522 C 130.000 70.216,129.662 70.504,128.378 71.900 M260.000 70.525 C 260.000 70.594,260.585 71.179,261.300 71.825 L 262.600 73.000 261.425 71.700 C 260.330 70.488,260.000 70.216,260.000 70.525 M130.900 167.076 C 131.285 167.176,131.915 167.176,132.300 167.076 C 132.685 166.975,132.370 166.893,131.600 166.893 C 130.830 166.893,130.515 166.975,130.900 167.076 M266.120 169.600 C 266.120 170.810,266.195 171.305,266.287 170.700 C 266.378 170.095,266.378 169.105,266.287 168.500 C 266.195 167.895,266.120 168.390,266.120 169.600 M187.700 175.876 C 188.085 175.976,188.715 175.976,189.100 175.876 C 189.485 175.775,189.170 175.693,188.400 175.693 C 187.630 175.693,187.315 175.775,187.700 175.876 M202.700 175.882 C 203.195 175.978,204.005 175.978,204.500 175.882 C 204.995 175.787,204.590 175.709,203.600 175.709 C 202.610 175.709,202.205 175.787,202.700 175.882 M278.914 187.800 C 278.917 188.900,278.995 189.303,279.087 188.695 C 279.179 188.086,279.177 187.186,279.082 186.695 C 278.987 186.203,278.911 186.700,278.914 187.800 M257.978 187.900 L 256.600 189.400 258.100 188.022 C 259.496 186.738,259.784 186.400,259.478 186.400 C 259.412 186.400,258.737 187.075,257.978 187.900 M110.893 193.200 C 110.893 193.970,110.975 194.285,111.076 193.900 C 111.176 193.515,111.176 192.885,111.076 192.500 C 110.975 192.115,110.893 192.430,110.893 193.200 M278.901 206.600 C 278.905 207.480,278.987 207.793,279.083 207.295 C 279.179 206.798,279.175 206.078,279.075 205.695 C 278.975 205.313,278.896 205.720,278.901 206.600 M110.901 207.400 C 110.905 208.280,110.987 208.593,111.083 208.095 C 111.179 207.598,111.175 206.878,111.075 206.495 C 110.975 206.113,110.896 206.520,110.901 207.400 M213.301 227.800 C 213.305 228.680,213.387 228.993,213.483 228.495 C 213.579 227.998,213.575 227.278,213.475 226.895 C 213.375 226.513,213.296 226.920,213.301 227.800 M214.195 291.400 C 214.195 323.520,214.242 336.719,214.300 320.731 C 214.358 304.744,214.358 278.464,214.300 262.331 C 214.242 246.199,214.195 259.280,214.195 291.400 M286.778 300.700 L 285.400 302.200 286.900 300.822 C 288.296 299.538,288.584 299.200,288.278 299.200 C 288.212 299.200,287.537 299.875,286.778 300.700 M280.175 306.900 L 279.000 308.200 280.300 307.025 C 281.015 306.379,281.600 305.794,281.600 305.725 C 281.600 305.416,281.270 305.688,280.175 306.900 M173.763 330.800 C 173.763 334.430,173.823 335.915,173.898 334.100 C 173.972 332.285,173.972 329.315,173.898 327.500 C 173.823 325.685,173.763 327.170,173.763 330.800 " stroke="none" fill="#a4a4a4" fill-rule="evenodd"></path></g></svg>